<?xml version="1.0" standalone="no"?>
<!DOCTYPE svg PUBLIC "-//W3C//DTD SVG 20010904//EN"
 "http://www.w3.org/TR/2001/REC-SVG-20010904/DTD/svg10.dtd">
<svg version="1.0" xmlns="http://www.w3.org/2000/svg"
 width="64.000000pt" height="64.000000pt" viewBox="0 0 64.000000 64.000000"
 preserveAspectRatio="xMidYMid meet">

<g transform="translate(0.000000,64.000000) scale(0.100000,-0.100000)"
fill="#000000" stroke="none">
<path d="M303 568 c-5 -7 -17 -34 -27 -60 -19 -50 -34 -61 -43 -29 -6 22 -29
35 -45 25 -23 -14 -50 -99 -52 -158 -1 -77 24 -129 83 -171 35 -25 52 -30 101
-30 111 0 186 83 184 201 -2 59 -29 144 -52 158 -16 10 -39 -3 -45 -25 -9 -32
-24 -21 -43 29 -19 50 -32 72 -44 72 -4 0 -12 -6 -17 -12z m46 -61 c24 -70 37
-78 67 -42 24 29 25 29 37 10 24 -40 35 -81 36 -134 2 -137 -130 -222 -249
-161 -94 48 -119 187 -53 295 12 19 13 19 36 -10 21 -25 27 -27 40 -17 8 7 18
24 21 37 22 88 41 94 65 22z"/>
</g>
</svg>
