<?xml version="1.0" encoding="utf-8" standalone="no"?>
<!DOCTYPE svg PUBLIC "-//W3C//DTD SVG 1.1//EN"
  "http://www.w3.org/Graphics/SVG/1.1/DTD/svg11.dtd">
<!-- Created with matplotlib (https://matplotlib.org/) -->
<svg height="276.7275pt" version="1.1" viewBox="0 0 374.95 276.7275" width="374.95pt" xmlns="http://www.w3.org/2000/svg" xmlns:xlink="http://www.w3.org/1999/xlink">
 <defs>
  <style type="text/css">
*{stroke-linecap:butt;stroke-linejoin:round;}
  </style>
 </defs>
 <g id="figure_1">
  <g id="patch_1">
   <path d="M 0 276.7275 
L 374.95 276.7275 
L 374.95 0 
L 0 0 
z
" style="fill:#ffffff;"/>
  </g>
  <g id="axes_1">
   <g id="patch_2">
    <path d="M 32.95 240.6525 
L 367.75 240.6525 
L 367.75 23.2125 
L 32.95 23.2125 
z
" style="fill:#e5e5e5;"/>
   </g>
   <g id="matplotlib.axis_1">
    <g id="xtick_1">
     <g id="line2d_1">
      <path clip-path="url(#p4302045e38)" d="M 48.168182 240.6525 
L 48.168182 23.2125 
" style="fill:none;stroke:#ffffff;stroke-linecap:square;stroke-width:0.8;"/>
     </g>
     <g id="line2d_2">
      <defs>
       <path d="M 0 0 
L 0 3.5 
" id="m33b8dffc0c" style="stroke:#555555;stroke-width:0.8;"/>
      </defs>
      <g>
       <use style="fill:#555555;stroke:#555555;stroke-width:0.8;" x="48.168182" xlink:href="#m33b8dffc0c" y="240.6525"/>
      </g>
     </g>
     <g id="text_1">
      <!-- 0.00 -->
      <defs>
       <path d="M 3.125 29.296875 
Q 3.90625 50 6.4375 56.046875 
Q 8.984375 62.109375 13.671875 66.015625 
Q 18.359375 69.921875 25.1875 69.921875 
Q 32.03125 69.921875 37.109375 64.25 
Q 42.1875 58.59375 43.75 50 
Q 45.3125 41.40625 44.71875 30.265625 
Q 44.140625 19.140625 40.8125 12.109375 
Q 37.5 5.078125 30.859375 2.34375 
Q 24.21875 -0.390625 17.578125 2.921875 
Q 10.9375 6.25 8.203125 11.71875 
Q 5.46875 17.1875 4.296875 23.234375 
Q 3.125 29.296875 3.90625 50 
z
M 12.890625 52.734375 
Q 10.546875 31.25 12.5 22.84375 
Q 14.453125 14.453125 18.9375 10.9375 
Q 23.4375 7.421875 28.125 9.5625 
Q 32.8125 11.71875 34.953125 18.15625 
Q 37.109375 24.609375 37.109375 32.21875 
Q 37.109375 39.84375 36.515625 46.09375 
Q 35.9375 52.34375 33 57.421875 
Q 30.078125 62.5 25.1875 62.6875 
Q 20.3125 62.890625 16.59375 57.8125 
Q 12.890625 52.734375 10.546875 31.25 
z
" id="SimHei-48"/>
       <path d="M 16.796875 1.953125 
L 7.8125 1.953125 
L 7.8125 10.546875 
L 16.796875 10.546875 
z
" id="SimHei-46"/>
      </defs>
      <g style="fill:#555555;" transform="translate(38.168182 254.5275)scale(0.1 -0.1)">
       <use xlink:href="#SimHei-48"/>
       <use x="50" xlink:href="#SimHei-46"/>
       <use x="100" xlink:href="#SimHei-48"/>
       <use x="150" xlink:href="#SimHei-48"/>
      </g>
     </g>
    </g>
    <g id="xtick_2">
     <g id="line2d_3">
      <path clip-path="url(#p4302045e38)" d="M 86.213636 240.6525 
L 86.213636 23.2125 
" style="fill:none;stroke:#ffffff;stroke-linecap:square;stroke-width:0.8;"/>
     </g>
     <g id="line2d_4">
      <g>
       <use style="fill:#555555;stroke:#555555;stroke-width:0.8;" x="86.213636" xlink:href="#m33b8dffc0c" y="240.6525"/>
      </g>
     </g>
     <g id="text_2">
      <!-- 0.25 -->
      <defs>
       <path d="M 4.6875 3.90625 
Q 5.078125 9.765625 10.15625 14.453125 
Q 15.234375 19.140625 23.046875 29.09375 
Q 30.859375 39.0625 33.203125 44.53125 
Q 35.546875 50 34.953125 53.90625 
Q 34.375 57.8125 31.25 60.34375 
Q 28.125 62.890625 24.015625 62.5 
Q 19.921875 62.109375 16.203125 59.375 
Q 12.5 56.640625 10.546875 51.171875 
L 3.125 52.34375 
Q 6.25 61.328125 11.125 65.421875 
Q 16.015625 69.53125 22.65625 69.921875 
Q 26.5625 70.3125 29.6875 69.71875 
Q 32.8125 69.140625 36.125 66.984375 
Q 39.453125 64.84375 41.59375 60.546875 
Q 43.75 56.25 43.15625 50.1875 
Q 42.578125 44.140625 37.109375 35.734375 
Q 31.640625 27.34375 16.015625 9.375 
L 44.140625 9.375 
L 44.140625 2.34375 
L 4.6875 2.34375 
z
" id="SimHei-50"/>
       <path d="M 8.59375 20.703125 
Q 11.328125 10.15625 17.96875 8.984375 
Q 24.609375 7.8125 28.703125 10.34375 
Q 32.8125 12.890625 34.5625 16.984375 
Q 36.328125 21.09375 36.125 26.171875 
Q 35.9375 31.25 33.390625 34.765625 
Q 30.859375 38.28125 26.953125 39.453125 
Q 23.046875 40.625 18.15625 39.453125 
Q 13.28125 38.28125 10.15625 33.984375 
L 3.515625 34.765625 
Q 4.296875 37.109375 10.9375 68.359375 
L 41.796875 68.359375 
L 41.796875 61.328125 
L 16.796875 61.328125 
Q 14.84375 50.78125 12.890625 44.53125 
Q 18.75 47.265625 23.828125 47.0625 
Q 28.90625 46.875 33.59375 44.71875 
Q 38.28125 42.578125 40.421875 38.859375 
Q 42.578125 35.15625 43.546875 31.4375 
Q 44.53125 27.734375 44.328125 23.4375 
Q 44.140625 19.140625 42.578125 14.640625 
Q 41.015625 10.15625 37.890625 7.21875 
Q 34.765625 4.296875 30.265625 2.53125 
Q 25.78125 0.78125 19.921875 1.171875 
Q 14.0625 1.5625 8.78125 5.46875 
Q 3.515625 9.375 1.5625 18.75 
z
" id="SimHei-53"/>
      </defs>
      <g style="fill:#555555;" transform="translate(76.213636 254.5275)scale(0.1 -0.1)">
       <use xlink:href="#SimHei-48"/>
       <use x="50" xlink:href="#SimHei-46"/>
       <use x="100" xlink:href="#SimHei-50"/>
       <use x="150" xlink:href="#SimHei-53"/>
      </g>
     </g>
    </g>
    <g id="xtick_3">
     <g id="line2d_5">
      <path clip-path="url(#p4302045e38)" d="M 124.259091 240.6525 
L 124.259091 23.2125 
" style="fill:none;stroke:#ffffff;stroke-linecap:square;stroke-width:0.8;"/>
     </g>
     <g id="line2d_6">
      <g>
       <use style="fill:#555555;stroke:#555555;stroke-width:0.8;" x="124.259091" xlink:href="#m33b8dffc0c" y="240.6525"/>
      </g>
     </g>
     <g id="text_3">
      <!-- 0.50 -->
      <g style="fill:#555555;" transform="translate(114.259091 254.5275)scale(0.1 -0.1)">
       <use xlink:href="#SimHei-48"/>
       <use x="50" xlink:href="#SimHei-46"/>
       <use x="100" xlink:href="#SimHei-53"/>
       <use x="150" xlink:href="#SimHei-48"/>
      </g>
     </g>
    </g>
    <g id="xtick_4">
     <g id="line2d_7">
      <path clip-path="url(#p4302045e38)" d="M 162.304545 240.6525 
L 162.304545 23.2125 
" style="fill:none;stroke:#ffffff;stroke-linecap:square;stroke-width:0.8;"/>
     </g>
     <g id="line2d_8">
      <g>
       <use style="fill:#555555;stroke:#555555;stroke-width:0.8;" x="162.304545" xlink:href="#m33b8dffc0c" y="240.6525"/>
      </g>
     </g>
     <g id="text_4">
      <!-- 0.75 -->
      <defs>
       <path d="M 13.28125 2.34375 
Q 20.3125 32.03125 37.890625 61.328125 
L 4.296875 61.328125 
L 4.296875 68.359375 
L 46.09375 68.359375 
L 46.09375 61.71875 
Q 27.734375 32.03125 21.875 2.34375 
L 13.28125 2.34375 
z
" id="SimHei-55"/>
      </defs>
      <g style="fill:#555555;" transform="translate(152.304545 254.5275)scale(0.1 -0.1)">
       <use xlink:href="#SimHei-48"/>
       <use x="50" xlink:href="#SimHei-46"/>
       <use x="100" xlink:href="#SimHei-55"/>
       <use x="150" xlink:href="#SimHei-53"/>
      </g>
     </g>
    </g>
    <g id="xtick_5">
     <g id="line2d_9">
      <path clip-path="url(#p4302045e38)" d="M 200.35 240.6525 
L 200.35 23.2125 
" style="fill:none;stroke:#ffffff;stroke-linecap:square;stroke-width:0.8;"/>
     </g>
     <g id="line2d_10">
      <g>
       <use style="fill:#555555;stroke:#555555;stroke-width:0.8;" x="200.35" xlink:href="#m33b8dffc0c" y="240.6525"/>
      </g>
     </g>
     <g id="text_5">
      <!-- 1.00 -->
      <defs>
       <path d="M 21.875 56.25 
Q 16.796875 51.171875 8.984375 46.484375 
L 8.984375 53.90625 
Q 18.75 60.546875 25 69.53125 
L 29.6875 69.53125 
L 29.6875 2.34375 
L 21.875 2.34375 
z
" id="SimHei-49"/>
      </defs>
      <g style="fill:#555555;" transform="translate(190.35 254.5275)scale(0.1 -0.1)">
       <use xlink:href="#SimHei-49"/>
       <use x="50" xlink:href="#SimHei-46"/>
       <use x="100" xlink:href="#SimHei-48"/>
       <use x="150" xlink:href="#SimHei-48"/>
      </g>
     </g>
    </g>
    <g id="xtick_6">
     <g id="line2d_11">
      <path clip-path="url(#p4302045e38)" d="M 238.395455 240.6525 
L 238.395455 23.2125 
" style="fill:none;stroke:#ffffff;stroke-linecap:square;stroke-width:0.8;"/>
     </g>
     <g id="line2d_12">
      <g>
       <use style="fill:#555555;stroke:#555555;stroke-width:0.8;" x="238.395455" xlink:href="#m33b8dffc0c" y="240.6525"/>
      </g>
     </g>
     <g id="text_6">
      <!-- 1.25 -->
      <g style="fill:#555555;" transform="translate(228.395455 254.5275)scale(0.1 -0.1)">
       <use xlink:href="#SimHei-49"/>
       <use x="50" xlink:href="#SimHei-46"/>
       <use x="100" xlink:href="#SimHei-50"/>
       <use x="150" xlink:href="#SimHei-53"/>
      </g>
     </g>
    </g>
    <g id="xtick_7">
     <g id="line2d_13">
      <path clip-path="url(#p4302045e38)" d="M 276.440909 240.6525 
L 276.440909 23.2125 
" style="fill:none;stroke:#ffffff;stroke-linecap:square;stroke-width:0.8;"/>
     </g>
     <g id="line2d_14">
      <g>
       <use style="fill:#555555;stroke:#555555;stroke-width:0.8;" x="276.440909" xlink:href="#m33b8dffc0c" y="240.6525"/>
      </g>
     </g>
     <g id="text_7">
      <!-- 1.50 -->
      <g style="fill:#555555;" transform="translate(266.440909 254.5275)scale(0.1 -0.1)">
       <use xlink:href="#SimHei-49"/>
       <use x="50" xlink:href="#SimHei-46"/>
       <use x="100" xlink:href="#SimHei-53"/>
       <use x="150" xlink:href="#SimHei-48"/>
      </g>
     </g>
    </g>
    <g id="xtick_8">
     <g id="line2d_15">
      <path clip-path="url(#p4302045e38)" d="M 314.486364 240.6525 
L 314.486364 23.2125 
" style="fill:none;stroke:#ffffff;stroke-linecap:square;stroke-width:0.8;"/>
     </g>
     <g id="line2d_16">
      <g>
       <use style="fill:#555555;stroke:#555555;stroke-width:0.8;" x="314.486364" xlink:href="#m33b8dffc0c" y="240.6525"/>
      </g>
     </g>
     <g id="text_8">
      <!-- 1.75 -->
      <g style="fill:#555555;" transform="translate(304.486364 254.5275)scale(0.1 -0.1)">
       <use xlink:href="#SimHei-49"/>
       <use x="50" xlink:href="#SimHei-46"/>
       <use x="100" xlink:href="#SimHei-55"/>
       <use x="150" xlink:href="#SimHei-53"/>
      </g>
     </g>
    </g>
    <g id="xtick_9">
     <g id="line2d_17">
      <path clip-path="url(#p4302045e38)" d="M 352.531818 240.6525 
L 352.531818 23.2125 
" style="fill:none;stroke:#ffffff;stroke-linecap:square;stroke-width:0.8;"/>
     </g>
     <g id="line2d_18">
      <g>
       <use style="fill:#555555;stroke:#555555;stroke-width:0.8;" x="352.531818" xlink:href="#m33b8dffc0c" y="240.6525"/>
      </g>
     </g>
     <g id="text_9">
      <!-- 2.00 -->
      <g style="fill:#555555;" transform="translate(342.531818 254.5275)scale(0.1 -0.1)">
       <use xlink:href="#SimHei-50"/>
       <use x="50" xlink:href="#SimHei-46"/>
       <use x="100" xlink:href="#SimHei-48"/>
       <use x="150" xlink:href="#SimHei-48"/>
      </g>
     </g>
    </g>
    <g id="text_10">
     <!-- x label -->
     <defs>
      <path d="M 44.921875 1.953125 
L 35.546875 1.953125 
L 24.21875 18.75 
L 12.890625 1.953125 
L 3.515625 1.953125 
L 19.53125 24.21875 
L 4.6875 45.703125 
L 14.0625 45.703125 
L 24.21875 29.296875 
L 34.375 45.703125 
L 43.75 45.703125 
L 28.90625 24.21875 
z
" id="SimHei-120"/>
      <path id="SimHei-32"/>
      <path d="M 28.515625 1.953125 
L 20.703125 1.953125 
L 20.703125 68.75 
L 28.515625 68.75 
z
" id="SimHei-108"/>
      <path d="M 44.921875 1.953125 
L 35.546875 1.953125 
Q 34.765625 2.734375 34.375 4.09375 
Q 33.984375 5.46875 33.984375 7.421875 
Q 31.25 4.296875 27.34375 2.734375 
Q 23.4375 1.171875 19.140625 1.171875 
Q 12.890625 1.171875 8.59375 4.296875 
Q 4.296875 7.421875 4.296875 13.28125 
Q 4.296875 19.140625 8.203125 22.65625 
Q 12.109375 26.171875 20.3125 27.34375 
Q 25.78125 28.125 29.875 29.296875 
Q 33.984375 30.46875 33.984375 32.421875 
Q 33.984375 34.765625 32.21875 37.109375 
Q 30.46875 39.453125 24.609375 39.453125 
Q 19.921875 39.453125 17.765625 37.6875 
Q 15.625 35.9375 14.84375 32.8125 
L 6.25 32.8125 
Q 7.03125 39.0625 11.90625 42.765625 
Q 16.796875 46.484375 24.609375 46.484375 
Q 33.203125 46.484375 37.5 42.578125 
Q 41.796875 38.671875 41.796875 31.640625 
L 41.796875 10.15625 
Q 41.796875 7.8125 42.578125 5.859375 
Q 43.359375 3.90625 44.921875 1.953125 
z
M 33.984375 16.40625 
L 33.984375 24.21875 
Q 31.640625 23.4375 29.484375 22.84375 
Q 27.34375 22.265625 22.265625 21.484375 
Q 16.40625 20.703125 14.640625 18.75 
Q 12.890625 16.796875 12.890625 14.0625 
Q 12.890625 11.71875 14.640625 9.953125 
Q 16.40625 8.203125 19.921875 8.203125 
Q 23.4375 8.203125 27.53125 10.15625 
Q 31.640625 12.109375 33.984375 16.40625 
z
" id="SimHei-97"/>
      <path d="M 44.140625 23.828125 
Q 44.140625 12.5 38.671875 6.828125 
Q 33.203125 1.171875 25.390625 1.171875 
Q 21.09375 1.171875 17.96875 2.734375 
Q 14.84375 4.296875 12.5 7.8125 
L 12.5 1.953125 
L 4.6875 1.953125 
L 4.6875 68.75 
L 12.5 68.75 
L 12.5 39.84375 
Q 14.84375 43.359375 17.96875 45.109375 
Q 21.09375 46.875 25.390625 46.875 
Q 33.203125 46.875 38.671875 41.015625 
Q 44.140625 35.15625 44.140625 23.828125 
z
M 35.546875 23.828125 
Q 35.546875 31.25 32.609375 35.546875 
Q 29.6875 39.84375 23.828125 39.84375 
Q 19.140625 39.84375 15.8125 35.546875 
Q 12.5 31.25 12.5 23.828125 
Q 12.5 16.40625 15.8125 12.296875 
Q 19.140625 8.203125 23.828125 8.203125 
Q 29.6875 8.203125 32.609375 12.296875 
Q 35.546875 16.40625 35.546875 23.828125 
z
" id="SimHei-98"/>
      <path d="M 44.53125 16.796875 
Q 43.75 9.765625 38.28125 5.46875 
Q 32.8125 1.171875 25.390625 1.171875 
Q 16.015625 1.171875 9.953125 7.21875 
Q 3.90625 13.28125 3.90625 23.828125 
Q 3.90625 34.375 9.953125 40.421875 
Q 16.015625 46.484375 25.390625 46.484375 
Q 33.59375 46.484375 38.859375 41.203125 
Q 44.140625 35.9375 44.140625 23.828125 
L 12.5 23.828125 
Q 12.5 15.234375 16.203125 11.71875 
Q 19.921875 8.203125 25.390625 8.203125 
Q 29.6875 8.203125 32.421875 10.34375 
Q 35.15625 12.5 35.9375 16.796875 
z
M 35.15625 30.078125 
Q 34.375 35.546875 31.640625 37.6875 
Q 28.90625 39.84375 24.609375 39.84375 
Q 20.703125 39.84375 17.578125 37.6875 
Q 14.453125 35.546875 12.890625 30.078125 
z
" id="SimHei-101"/>
     </defs>
     <g style="fill:#555555;" transform="translate(179.35 268.0275)scale(0.12 -0.12)">
      <use xlink:href="#SimHei-120"/>
      <use x="50" xlink:href="#SimHei-32"/>
      <use x="100" xlink:href="#SimHei-108"/>
      <use x="150" xlink:href="#SimHei-97"/>
      <use x="200" xlink:href="#SimHei-98"/>
      <use x="250" xlink:href="#SimHei-101"/>
      <use x="300" xlink:href="#SimHei-108"/>
     </g>
    </g>
   </g>
   <g id="matplotlib.axis_2">
    <g id="ytick_1">
     <g id="line2d_19">
      <path clip-path="url(#p4302045e38)" d="M 32.95 230.768864 
L 367.75 230.768864 
" style="fill:none;stroke:#ffffff;stroke-linecap:square;stroke-width:0.8;"/>
     </g>
     <g id="line2d_20">
      <defs>
       <path d="M 0 0 
L -3.5 0 
" id="m32d37d1f9d" style="stroke:#555555;stroke-width:0.8;"/>
      </defs>
      <g>
       <use style="fill:#555555;stroke:#555555;stroke-width:0.8;" x="32.95" xlink:href="#m32d37d1f9d" y="230.768864"/>
      </g>
     </g>
     <g id="text_11">
      <!-- 0 -->
      <g style="fill:#555555;" transform="translate(20.95 234.206364)scale(0.1 -0.1)">
       <use xlink:href="#SimHei-48"/>
      </g>
     </g>
    </g>
    <g id="ytick_2">
     <g id="line2d_21">
      <path clip-path="url(#p4302045e38)" d="M 32.95 206.059773 
L 367.75 206.059773 
" style="fill:none;stroke:#ffffff;stroke-linecap:square;stroke-width:0.8;"/>
     </g>
     <g id="line2d_22">
      <g>
       <use style="fill:#555555;stroke:#555555;stroke-width:0.8;" x="32.95" xlink:href="#m32d37d1f9d" y="206.059773"/>
      </g>
     </g>
     <g id="text_12">
      <!-- 1 -->
      <g style="fill:#555555;" transform="translate(20.95 209.497273)scale(0.1 -0.1)">
       <use xlink:href="#SimHei-49"/>
      </g>
     </g>
    </g>
    <g id="ytick_3">
     <g id="line2d_23">
      <path clip-path="url(#p4302045e38)" d="M 32.95 181.350682 
L 367.75 181.350682 
" style="fill:none;stroke:#ffffff;stroke-linecap:square;stroke-width:0.8;"/>
     </g>
     <g id="line2d_24">
      <g>
       <use style="fill:#555555;stroke:#555555;stroke-width:0.8;" x="32.95" xlink:href="#m32d37d1f9d" y="181.350682"/>
      </g>
     </g>
     <g id="text_13">
      <!-- 2 -->
      <g style="fill:#555555;" transform="translate(20.95 184.788182)scale(0.1 -0.1)">
       <use xlink:href="#SimHei-50"/>
      </g>
     </g>
    </g>
    <g id="ytick_4">
     <g id="line2d_25">
      <path clip-path="url(#p4302045e38)" d="M 32.95 156.641591 
L 367.75 156.641591 
" style="fill:none;stroke:#ffffff;stroke-linecap:square;stroke-width:0.8;"/>
     </g>
     <g id="line2d_26">
      <g>
       <use style="fill:#555555;stroke:#555555;stroke-width:0.8;" x="32.95" xlink:href="#m32d37d1f9d" y="156.641591"/>
      </g>
     </g>
     <g id="text_14">
      <!-- 3 -->
      <defs>
       <path d="M 3.90625 19.140625 
L 10.9375 20.3125 
Q 12.5 15.234375 16.015625 11.90625 
Q 19.53125 8.59375 24.796875 8.78125 
Q 30.078125 8.984375 33.203125 13.078125 
Q 36.328125 17.1875 35.9375 22.453125 
Q 35.546875 27.734375 31.828125 30.65625 
Q 28.125 33.59375 19.921875 34.765625 
L 19.921875 39.84375 
Q 28.125 40.625 31.828125 44.140625 
Q 35.546875 47.65625 35.15625 53.3125 
Q 34.765625 58.984375 30.078125 61.515625 
Q 25.390625 64.0625 20.109375 62.109375 
Q 14.84375 60.15625 11.71875 51.171875 
L 4.6875 52.34375 
Q 7.03125 59.375 11.125 64.0625 
Q 15.234375 68.75 22.265625 69.53125 
Q 29.296875 70.3125 34.5625 67.765625 
Q 39.84375 65.234375 41.984375 59.953125 
Q 44.140625 54.6875 42.578125 48.4375 
Q 41.015625 42.1875 33.59375 37.5 
Q 39.0625 35.15625 41.984375 30.46875 
Q 44.921875 25.78125 43.9375 18.15625 
Q 42.96875 10.546875 37.109375 5.859375 
Q 31.25 1.171875 23.828125 1.359375 
Q 16.40625 1.5625 10.9375 6.046875 
Q 5.46875 10.546875 3.90625 19.140625 
z
" id="SimHei-51"/>
      </defs>
      <g style="fill:#555555;" transform="translate(20.95 160.079091)scale(0.1 -0.1)">
       <use xlink:href="#SimHei-51"/>
      </g>
     </g>
    </g>
    <g id="ytick_5">
     <g id="line2d_27">
      <path clip-path="url(#p4302045e38)" d="M 32.95 131.9325 
L 367.75 131.9325 
" style="fill:none;stroke:#ffffff;stroke-linecap:square;stroke-width:0.8;"/>
     </g>
     <g id="line2d_28">
      <g>
       <use style="fill:#555555;stroke:#555555;stroke-width:0.8;" x="32.95" xlink:href="#m32d37d1f9d" y="131.9325"/>
      </g>
     </g>
     <g id="text_15">
      <!-- 4 -->
      <defs>
       <path d="M 31.25 17.1875 
L 1.171875 17.1875 
L 1.171875 23.828125 
L 32.8125 69.53125 
L 38.671875 69.53125 
L 38.671875 23.828125 
L 48.046875 23.828125 
L 48.046875 17.1875 
L 38.671875 17.1875 
L 38.671875 2.34375 
L 31.25 2.34375 
z
M 31.25 23.828125 
L 31.25 54.6875 
L 9.375 23.828125 
z
" id="SimHei-52"/>
      </defs>
      <g style="fill:#555555;" transform="translate(20.95 135.37)scale(0.1 -0.1)">
       <use xlink:href="#SimHei-52"/>
      </g>
     </g>
    </g>
    <g id="ytick_6">
     <g id="line2d_29">
      <path clip-path="url(#p4302045e38)" d="M 32.95 107.223409 
L 367.75 107.223409 
" style="fill:none;stroke:#ffffff;stroke-linecap:square;stroke-width:0.8;"/>
     </g>
     <g id="line2d_30">
      <g>
       <use style="fill:#555555;stroke:#555555;stroke-width:0.8;" x="32.95" xlink:href="#m32d37d1f9d" y="107.223409"/>
      </g>
     </g>
     <g id="text_16">
      <!-- 5 -->
      <g style="fill:#555555;" transform="translate(20.95 110.660909)scale(0.1 -0.1)">
       <use xlink:href="#SimHei-53"/>
      </g>
     </g>
    </g>
    <g id="ytick_7">
     <g id="line2d_31">
      <path clip-path="url(#p4302045e38)" d="M 32.95 82.514318 
L 367.75 82.514318 
" style="fill:none;stroke:#ffffff;stroke-linecap:square;stroke-width:0.8;"/>
     </g>
     <g id="line2d_32">
      <g>
       <use style="fill:#555555;stroke:#555555;stroke-width:0.8;" x="32.95" xlink:href="#m32d37d1f9d" y="82.514318"/>
      </g>
     </g>
     <g id="text_17">
      <!-- 6 -->
      <defs>
       <path d="M 3.515625 19.53125 
Q 4.296875 30.859375 6.046875 34.765625 
Q 7.8125 38.671875 11.328125 44.53125 
L 27.34375 69.53125 
L 36.328125 69.53125 
L 19.921875 43.75 
Q 30.46875 46.484375 36.71875 42.96875 
Q 42.96875 39.453125 45.109375 34.953125 
Q 47.265625 30.46875 47.453125 25.1875 
Q 47.65625 19.921875 45.890625 14.84375 
Q 44.140625 9.765625 39.640625 5.65625 
Q 35.15625 1.5625 27.140625 1.171875 
Q 19.140625 0.78125 13.46875 4.09375 
Q 7.8125 7.421875 5.65625 13.46875 
Q 3.515625 19.53125 4.296875 30.859375 
z
M 12.5 16.015625 
Q 19.53125 8.59375 25.390625 8.203125 
Q 31.25 7.8125 35.15625 12.109375 
Q 39.0625 16.40625 39.0625 24.609375 
Q 39.0625 32.8125 34.171875 35.9375 
Q 29.296875 39.0625 23.234375 38.28125 
Q 17.1875 37.5 14.453125 32.421875 
Q 11.71875 27.34375 12.109375 21.671875 
Q 12.5 16.015625 19.53125 8.59375 
z
" id="SimHei-54"/>
      </defs>
      <g style="fill:#555555;" transform="translate(20.95 85.951818)scale(0.1 -0.1)">
       <use xlink:href="#SimHei-54"/>
      </g>
     </g>
    </g>
    <g id="ytick_8">
     <g id="line2d_33">
      <path clip-path="url(#p4302045e38)" d="M 32.95 57.805227 
L 367.75 57.805227 
" style="fill:none;stroke:#ffffff;stroke-linecap:square;stroke-width:0.8;"/>
     </g>
     <g id="line2d_34">
      <g>
       <use style="fill:#555555;stroke:#555555;stroke-width:0.8;" x="32.95" xlink:href="#m32d37d1f9d" y="57.805227"/>
      </g>
     </g>
     <g id="text_18">
      <!-- 7 -->
      <g style="fill:#555555;" transform="translate(20.95 61.242727)scale(0.1 -0.1)">
       <use xlink:href="#SimHei-55"/>
      </g>
     </g>
    </g>
    <g id="ytick_9">
     <g id="line2d_35">
      <path clip-path="url(#p4302045e38)" d="M 32.95 33.096136 
L 367.75 33.096136 
" style="fill:none;stroke:#ffffff;stroke-linecap:square;stroke-width:0.8;"/>
     </g>
     <g id="line2d_36">
      <g>
       <use style="fill:#555555;stroke:#555555;stroke-width:0.8;" x="32.95" xlink:href="#m32d37d1f9d" y="33.096136"/>
      </g>
     </g>
     <g id="text_19">
      <!-- 8 -->
      <defs>
       <path d="M 2.734375 16.796875 
Q 2.734375 26.171875 5.078125 30.65625 
Q 7.421875 35.15625 12.890625 37.890625 
Q 8.203125 40.625 6.640625 43.9375 
Q 5.078125 47.265625 4.875 51.5625 
Q 4.6875 55.859375 6.046875 58.984375 
Q 7.421875 62.109375 10.15625 64.84375 
Q 12.890625 67.578125 16.203125 68.546875 
Q 19.53125 69.53125 23.4375 69.53125 
Q 27.34375 69.53125 30.46875 68.75 
Q 33.59375 67.96875 37.109375 65.421875 
Q 40.625 62.890625 42.1875 58.203125 
Q 43.75 53.515625 41.984375 47.265625 
Q 40.234375 41.015625 32.8125 37.5 
Q 39.453125 35.546875 42.1875 31.4375 
Q 44.921875 27.34375 44.921875 21.484375 
Q 44.921875 15.625 43.15625 12.109375 
Q 41.40625 8.59375 39.25 6.25 
Q 37.109375 3.90625 33.390625 2.53125 
Q 29.6875 1.171875 24.015625 1.171875 
Q 18.359375 1.171875 14.25 2.53125 
Q 10.15625 3.90625 7.421875 6.640625 
Q 4.6875 9.375 3.703125 13.078125 
Q 2.734375 16.796875 2.734375 26.171875 
z
M 10.9375 26.5625 
Q 10.546875 17.1875 12.296875 13.671875 
Q 14.0625 10.15625 18.75 9.171875 
Q 23.4375 8.203125 28.515625 9.375 
Q 33.59375 10.546875 35.546875 14.84375 
Q 37.5 19.140625 36.90625 23.4375 
Q 36.328125 27.734375 32.03125 30.65625 
Q 27.734375 33.59375 22.65625 33.203125 
Q 17.578125 32.8125 14.25 29.6875 
Q 10.9375 26.5625 10.546875 17.1875 
z
M 12.109375 56.25 
Q 12.109375 48.4375 14.84375 44.921875 
Q 17.578125 41.40625 23.4375 41.40625 
Q 29.296875 41.40625 32.21875 44.921875 
Q 35.15625 48.4375 34.953125 53.3125 
Q 34.765625 58.203125 31.4375 60.546875 
Q 28.125 62.890625 22.453125 62.5 
Q 16.796875 62.109375 14.453125 59.171875 
Q 12.109375 56.25 12.109375 48.4375 
z
" id="SimHei-56"/>
      </defs>
      <g style="fill:#555555;" transform="translate(20.95 36.533636)scale(0.1 -0.1)">
       <use xlink:href="#SimHei-56"/>
      </g>
     </g>
    </g>
    <g id="text_20">
     <!-- y label -->
     <defs>
      <path d="M 45.3125 45.703125 
L 27.34375 -1.5625 
Q 25.78125 -7.03125 22.65625 -9.765625 
Q 19.53125 -12.5 14.84375 -12.5 
Q 12.890625 -12.5 11.125 -12.296875 
Q 9.375 -12.109375 7.8125 -11.328125 
L 7.8125 -3.515625 
Q 9.375 -4.296875 10.9375 -4.6875 
Q 12.5 -5.078125 13.671875 -5.078125 
Q 16.796875 -5.078125 17.96875 -4.09375 
Q 19.140625 -3.125 20.3125 0.390625 
L 3.125 45.703125 
L 11.71875 45.703125 
L 24.21875 11.328125 
L 24.609375 11.328125 
L 36.71875 45.703125 
z
" id="SimHei-121"/>
     </defs>
     <g style="fill:#555555;" transform="translate(15.45 152.9325)rotate(-90)scale(0.12 -0.12)">
      <use xlink:href="#SimHei-121"/>
      <use x="50" xlink:href="#SimHei-32"/>
      <use x="100" xlink:href="#SimHei-108"/>
      <use x="150" xlink:href="#SimHei-97"/>
      <use x="200" xlink:href="#SimHei-98"/>
      <use x="250" xlink:href="#SimHei-101"/>
      <use x="300" xlink:href="#SimHei-108"/>
     </g>
    </g>
   </g>
   <g id="line2d_37">
    <path clip-path="url(#p4302045e38)" d="M 48.168182 230.768864 
L 51.242562 230.26969 
L 54.316942 229.770517 
L 57.391322 229.271343 
L 60.465702 228.772169 
L 63.540083 228.272996 
L 66.614463 227.773822 
L 69.688843 227.274649 
L 72.763223 226.775475 
L 75.837603 226.276302 
L 78.911983 225.777128 
L 81.986364 225.277955 
L 85.060744 224.778781 
L 88.135124 224.279607 
L 91.209504 223.780434 
L 94.283884 223.28126 
L 97.358264 222.782087 
L 100.432645 222.282913 
L 103.507025 221.78374 
L 106.581405 221.284566 
L 109.655785 220.785393 
L 112.730165 220.286219 
L 115.804545 219.787045 
L 118.878926 219.287872 
L 121.953306 218.788698 
L 125.027686 218.289525 
L 128.102066 217.790351 
L 131.176446 217.291178 
L 134.250826 216.792004 
L 137.325207 216.292831 
L 140.399587 215.793657 
L 143.473967 215.294483 
L 146.548347 214.79531 
L 149.622727 214.296136 
L 152.697107 213.796963 
L 155.771488 213.297789 
L 158.845868 212.798616 
L 161.920248 212.299442 
L 164.994628 211.800269 
L 168.069008 211.301095 
L 171.143388 210.801921 
L 174.217769 210.302748 
L 177.292149 209.803574 
L 180.366529 209.304401 
L 183.440909 208.805227 
L 186.515289 208.306054 
L 189.589669 207.80688 
L 192.66405 207.307707 
L 195.73843 206.808533 
L 198.81281 206.30936 
L 201.88719 205.810186 
L 204.96157 205.311012 
L 208.03595 204.811839 
L 211.110331 204.312665 
L 214.184711 203.813492 
L 217.259091 203.314318 
L 220.333471 202.815145 
L 223.407851 202.315971 
L 226.482231 201.816798 
L 229.556612 201.317624 
L 232.630992 200.81845 
L 235.705372 200.319277 
L 238.779752 199.820103 
L 241.854132 199.32093 
L 244.928512 198.821756 
L 248.002893 198.322583 
L 251.077273 197.823409 
L 254.151653 197.324236 
L 257.226033 196.825062 
L 260.300413 196.325888 
L 263.374793 195.826715 
L 266.449174 195.327541 
L 269.523554 194.828368 
L 272.597934 194.329194 
L 275.672314 193.830021 
L 278.746694 193.330847 
L 281.821074 192.831674 
L 284.895455 192.3325 
L 287.969835 191.833326 
L 291.044215 191.334153 
L 294.118595 190.834979 
L 297.192975 190.335806 
L 300.267355 189.836632 
L 303.341736 189.337459 
L 306.416116 188.838285 
L 309.490496 188.339112 
L 312.564876 187.839938 
L 315.639256 187.340764 
L 318.713636 186.841591 
L 321.788017 186.342417 
L 324.862397 185.843244 
L 327.936777 185.34407 
L 331.011157 184.844897 
L 334.085537 184.345723 
L 337.159917 183.84655 
L 340.234298 183.347376 
L 343.308678 182.848202 
L 346.383058 182.349029 
L 349.457438 181.849855 
L 352.531818 181.350682 
" style="fill:none;stroke:#e24a33;stroke-linecap:square;stroke-width:1.5;"/>
   </g>
   <g id="line2d_38">
    <path clip-path="url(#p4302045e38)" d="M 48.168182 230.768864 
L 51.242562 230.758779 
L 54.316942 230.728526 
L 57.391322 230.678105 
L 60.465702 230.607515 
L 63.540083 230.516756 
L 66.614463 230.405828 
L 69.688843 230.274732 
L 72.763223 230.123468 
L 75.837603 229.952034 
L 78.911983 229.760432 
L 81.986364 229.548662 
L 85.060744 229.316722 
L 88.135124 229.064615 
L 91.209504 228.792338 
L 94.283884 228.499893 
L 97.358264 228.187279 
L 100.432645 227.854497 
L 103.507025 227.501546 
L 106.581405 227.128426 
L 109.655785 226.735138 
L 112.730165 226.321681 
L 115.804545 225.888056 
L 118.878926 225.434261 
L 121.953306 224.960299 
L 125.027686 224.466167 
L 128.102066 223.951867 
L 131.176446 223.417399 
L 134.250826 222.862761 
L 137.325207 222.287955 
L 140.399587 221.692981 
L 143.473967 221.077838 
L 146.548347 220.442526 
L 149.622727 219.787045 
L 152.697107 219.111396 
L 155.771488 218.415579 
L 158.845868 217.699592 
L 161.920248 216.963437 
L 164.994628 216.207114 
L 168.069008 215.430622 
L 171.143388 214.633961 
L 174.217769 213.817131 
L 177.292149 212.980133 
L 180.366529 212.122967 
L 183.440909 211.245631 
L 186.515289 210.348127 
L 189.589669 209.430455 
L 192.66405 208.492614 
L 195.73843 207.534604 
L 198.81281 206.556425 
L 201.88719 205.558078 
L 204.96157 204.539562 
L 208.03595 203.500878 
L 211.110331 202.442025 
L 214.184711 201.363003 
L 217.259091 200.263813 
L 220.333471 199.144454 
L 223.407851 198.004927 
L 226.482231 196.845231 
L 229.556612 195.665366 
L 232.630992 194.465332 
L 235.705372 193.24513 
L 238.779752 192.00476 
L 241.854132 190.744221 
L 244.928512 189.463513 
L 248.002893 188.162636 
L 251.077273 186.841591 
L 254.151653 185.500377 
L 257.226033 184.138995 
L 260.300413 182.757444 
L 263.374793 181.355724 
L 266.449174 179.933836 
L 269.523554 178.491779 
L 272.597934 177.029553 
L 275.672314 175.547159 
L 278.746694 174.044596 
L 281.821074 172.521865 
L 284.895455 170.978965 
L 287.969835 169.415896 
L 291.044215 167.832659 
L 294.118595 166.229253 
L 297.192975 164.605678 
L 300.267355 162.961935 
L 303.341736 161.298023 
L 306.416116 159.613943 
L 309.490496 157.909693 
L 312.564876 156.185276 
L 315.639256 154.440689 
L 318.713636 152.675934 
L 321.788017 150.891011 
L 324.862397 149.085918 
L 327.936777 147.260658 
L 331.011157 145.415228 
L 334.085537 143.54963 
L 337.159917 141.663863 
L 340.234298 139.757928 
L 343.308678 137.831824 
L 346.383058 135.885551 
L 349.457438 133.91911 
L 352.531818 131.9325 
" style="fill:none;stroke:#348abd;stroke-linecap:square;stroke-width:1.5;"/>
   </g>
   <g id="line2d_39">
    <path clip-path="url(#p4302045e38)" d="M 48.168182 230.768864 
L 51.242562 230.76866 
L 54.316942 230.767234 
L 57.391322 230.763363 
L 60.465702 230.755825 
L 63.540083 230.743398 
L 66.614463 230.724859 
L 69.688843 230.698986 
L 72.763223 230.664557 
L 75.837603 230.620349 
L 78.911983 230.56514 
L 81.986364 230.497708 
L 85.060744 230.416829 
L 88.135124 230.321283 
L 91.209504 230.209846 
L 94.283884 230.081297 
L 97.358264 229.934412 
L 100.432645 229.76797 
L 103.507025 229.580748 
L 106.581405 229.371524 
L 109.655785 229.139075 
L 112.730165 228.88218 
L 115.804545 228.599616 
L 118.878926 228.29016 
L 121.953306 227.95259 
L 125.027686 227.585684 
L 128.102066 227.188219 
L 131.176446 226.758974 
L 134.250826 226.296725 
L 137.325207 225.800251 
L 140.399587 225.268329 
L 143.473967 224.699736 
L 146.548347 224.093251 
L 149.622727 223.447652 
L 152.697107 222.761714 
L 155.771488 222.034218 
L 158.845868 221.263939 
L 161.920248 220.449656 
L 164.994628 219.590147 
L 168.069008 218.684188 
L 171.143388 217.730558 
L 174.217769 216.728035 
L 177.292149 215.675396 
L 180.366529 214.571418 
L 183.440909 213.414879 
L 186.515289 212.204558 
L 189.589669 210.939231 
L 192.66405 209.617677 
L 195.73843 208.238672 
L 198.81281 206.800995 
L 201.88719 205.303424 
L 204.96157 203.744735 
L 208.03595 202.123707 
L 211.110331 200.439117 
L 214.184711 198.689743 
L 217.259091 196.874363 
L 220.333471 194.991754 
L 223.407851 193.040694 
L 226.482231 191.01996 
L 229.556612 188.928331 
L 232.630992 186.764583 
L 235.705372 184.527495 
L 238.779752 182.215845 
L 241.854132 179.828409 
L 244.928512 177.363965 
L 248.002893 174.821292 
L 251.077273 172.199167 
L 254.151653 169.496367 
L 257.226033 166.71167 
L 260.300413 163.843854 
L 263.374793 160.891696 
L 266.449174 157.853975 
L 269.523554 154.729467 
L 272.597934 151.516951 
L 275.672314 148.215204 
L 278.746694 144.823004 
L 281.821074 141.339128 
L 284.895455 137.762354 
L 287.969835 134.09146 
L 291.044215 130.325223 
L 294.118595 126.462422 
L 297.192975 122.501833 
L 300.267355 118.442234 
L 303.341736 114.282404 
L 306.416116 110.021119 
L 309.490496 105.657157 
L 312.564876 101.189297 
L 315.639256 96.616315 
L 318.713636 91.936989 
L 321.788017 87.150098 
L 324.862397 82.254418 
L 327.936777 77.248727 
L 331.011157 72.131804 
L 334.085537 66.902425 
L 337.159917 61.559368 
L 340.234298 56.101411 
L 343.308678 50.527332 
L 346.383058 44.835908 
L 349.457438 39.025917 
L 352.531818 33.096136 
" style="fill:none;stroke:#988ed5;stroke-linecap:square;stroke-width:1.5;"/>
   </g>
   <g id="patch_3">
    <path d="M 32.95 240.6525 
L 32.95 23.2125 
" style="fill:none;stroke:#ffffff;stroke-linecap:square;stroke-linejoin:miter;"/>
   </g>
   <g id="patch_4">
    <path d="M 367.75 240.6525 
L 367.75 23.2125 
" style="fill:none;stroke:#ffffff;stroke-linecap:square;stroke-linejoin:miter;"/>
   </g>
   <g id="patch_5">
    <path d="M 32.95 240.6525 
L 367.75 240.6525 
" style="fill:none;stroke:#ffffff;stroke-linecap:square;stroke-linejoin:miter;"/>
   </g>
   <g id="patch_6">
    <path d="M 32.95 23.2125 
L 367.75 23.2125 
" style="fill:none;stroke:#ffffff;stroke-linecap:square;stroke-linejoin:miter;"/>
   </g>
   <g id="text_21">
    <!-- Simple Plot -->
    <defs>
     <path d="M 45.3125 20.703125 
Q 45.3125 11.71875 39.640625 6.4375 
Q 33.984375 1.171875 24.21875 1.171875 
Q 14.453125 1.171875 8.984375 6.640625 
Q 3.515625 12.109375 3.515625 20.3125 
L 3.515625 23.046875 
L 12.5 23.046875 
L 12.5 20.703125 
Q 12.5 14.84375 16.015625 11.71875 
Q 19.53125 8.59375 24.21875 8.59375 
Q 30.46875 8.59375 33.390625 11.90625 
Q 36.328125 15.234375 36.328125 19.921875 
Q 36.328125 23.828125 32.8125 27.140625 
Q 29.296875 30.46875 22.65625 33.203125 
Q 13.28125 36.71875 9.171875 41.015625 
Q 5.078125 45.3125 5.078125 51.171875 
Q 5.078125 59.375 10.734375 64.453125 
Q 16.40625 69.53125 24.21875 69.53125 
Q 34.375 69.53125 38.859375 63.46875 
Q 43.359375 57.421875 43.359375 50.390625 
L 34.375 50.390625 
Q 34.765625 54.6875 32.03125 58.203125 
Q 29.296875 61.71875 24.21875 61.71875 
Q 19.53125 61.71875 16.796875 59.171875 
Q 14.0625 56.640625 14.0625 52.34375 
Q 14.0625 48.828125 16.203125 46.28125 
Q 18.359375 43.75 27.34375 40.234375 
Q 35.9375 36.71875 40.625 31.828125 
Q 45.3125 26.953125 45.3125 20.703125 
z
" id="SimHei-83"/>
     <path d="M 28.125 58.203125 
L 20.3125 58.203125 
L 20.3125 68.359375 
L 28.125 68.359375 
z
M 28.125 1.953125 
L 20.3125 1.953125 
L 20.3125 45.703125 
L 28.125 45.703125 
z
" id="SimHei-105"/>
     <path d="M 47.65625 1.953125 
L 39.84375 1.953125 
L 39.84375 33.59375 
Q 39.84375 35.9375 39.0625 37.5 
Q 38.28125 39.0625 35.9375 39.0625 
Q 33.203125 39.0625 30.859375 36.125 
Q 28.515625 33.203125 28.515625 28.515625 
L 28.515625 1.953125 
L 20.703125 1.953125 
L 20.703125 33.59375 
Q 20.703125 35.9375 19.921875 37.5 
Q 19.140625 39.0625 16.796875 39.0625 
Q 14.0625 39.0625 11.71875 36.125 
Q 9.375 33.203125 9.375 28.515625 
L 9.375 1.953125 
L 1.5625 1.953125 
L 1.5625 45.703125 
L 9.375 45.703125 
L 9.375 39.84375 
Q 11.328125 42.96875 14.0625 44.71875 
Q 16.796875 46.484375 19.921875 46.484375 
Q 23.046875 46.484375 25.1875 44.71875 
Q 27.34375 42.96875 28.125 39.84375 
Q 30.078125 42.96875 32.609375 44.71875 
Q 35.15625 46.484375 38.28125 46.484375 
Q 42.96875 46.484375 45.3125 43.9375 
Q 47.65625 41.40625 47.65625 36.71875 
z
" id="SimHei-109"/>
     <path d="M 44.140625 23.828125 
Q 44.140625 12.5 38.671875 6.640625 
Q 33.203125 0.78125 25.390625 0.78125 
Q 21.09375 0.78125 17.96875 2.53125 
Q 14.84375 4.296875 12.5 7.8125 
L 12.5 -12.5 
L 4.6875 -12.5 
L 4.6875 45.703125 
L 12.5 45.703125 
L 12.5 39.84375 
Q 14.84375 43.359375 17.96875 44.921875 
Q 21.09375 46.484375 25.390625 46.484375 
Q 33.203125 46.484375 38.671875 40.8125 
Q 44.140625 35.15625 44.140625 23.828125 
z
M 35.546875 23.828125 
Q 35.546875 31.25 32.609375 35.34375 
Q 29.6875 39.453125 23.828125 39.453125 
Q 19.140625 39.453125 15.8125 35.34375 
Q 12.5 31.25 12.5 23.828125 
Q 12.5 16.40625 15.8125 12.109375 
Q 19.140625 7.8125 23.828125 7.8125 
Q 29.6875 7.8125 32.609375 12.109375 
Q 35.546875 16.40625 35.546875 23.828125 
z
" id="SimHei-112"/>
     <path d="M 46.09375 48.4375 
Q 46.09375 39.0625 40.625 33.59375 
Q 35.15625 28.125 25.390625 28.125 
L 14.0625 28.125 
L 14.0625 1.953125 
L 5.078125 1.953125 
L 5.078125 68.75 
L 25.390625 68.75 
Q 35.15625 68.75 40.625 63.28125 
Q 46.09375 57.8125 46.09375 48.4375 
z
M 37.109375 48.4375 
Q 37.109375 55.859375 33.59375 58.59375 
Q 30.078125 61.328125 23.046875 61.328125 
L 14.0625 61.328125 
L 14.0625 35.546875 
L 23.046875 35.546875 
Q 30.078125 35.546875 33.59375 38.28125 
Q 37.109375 41.015625 37.109375 48.4375 
z
" id="SimHei-80"/>
     <path d="M 45.703125 23.828125 
Q 45.703125 13.671875 39.453125 7.421875 
Q 33.203125 1.171875 24.609375 1.171875 
Q 16.015625 1.171875 9.765625 7.421875 
Q 3.515625 13.671875 3.515625 23.828125 
Q 3.515625 33.984375 9.765625 40.234375 
Q 16.015625 46.484375 24.609375 46.484375 
Q 33.203125 46.484375 39.453125 40.234375 
Q 45.703125 33.984375 45.703125 23.828125 
z
M 37.109375 23.828125 
Q 37.109375 31.640625 33.203125 35.546875 
Q 29.296875 39.453125 24.609375 39.453125 
Q 19.921875 39.453125 16.015625 35.546875 
Q 12.109375 31.640625 12.109375 23.828125 
Q 12.109375 16.015625 16.015625 12.109375 
Q 19.921875 8.203125 24.609375 8.203125 
Q 29.296875 8.203125 33.203125 12.109375 
Q 37.109375 16.015625 37.109375 23.828125 
z
" id="SimHei-111"/>
     <path d="M 42.96875 3.125 
Q 41.015625 2.34375 38.46875 1.75 
Q 35.9375 1.171875 31.640625 1.171875 
Q 24.609375 1.171875 20.3125 5.078125 
Q 16.015625 8.984375 16.015625 16.015625 
L 16.015625 39.453125 
L 2.734375 39.453125 
L 2.734375 45.703125 
L 16.015625 45.703125 
L 16.015625 60.9375 
L 23.828125 60.9375 
L 23.828125 45.703125 
L 39.84375 45.703125 
L 39.84375 39.453125 
L 23.828125 39.453125 
L 23.828125 15.625 
Q 23.828125 12.5 25.390625 10.34375 
Q 26.953125 8.203125 31.25 8.203125 
Q 35.546875 8.203125 38.28125 8.984375 
Q 41.015625 9.765625 42.96875 10.9375 
z
" id="SimHei-116"/>
    </defs>
    <g transform="translate(160.75 17.2125)scale(0.144 -0.144)">
     <use xlink:href="#SimHei-83"/>
     <use x="50" xlink:href="#SimHei-105"/>
     <use x="100" xlink:href="#SimHei-109"/>
     <use x="150" xlink:href="#SimHei-112"/>
     <use x="200" xlink:href="#SimHei-108"/>
     <use x="250" xlink:href="#SimHei-101"/>
     <use x="300" xlink:href="#SimHei-32"/>
     <use x="350" xlink:href="#SimHei-80"/>
     <use x="400" xlink:href="#SimHei-108"/>
     <use x="450" xlink:href="#SimHei-111"/>
     <use x="500" xlink:href="#SimHei-116"/>
    </g>
   </g>
   <g id="legend_1">
    <g id="patch_7">
     <path d="M 39.95 70.9625 
L 116.95 70.9625 
Q 118.95 70.9625 118.95 68.9625 
L 118.95 30.2125 
Q 118.95 28.2125 116.95 28.2125 
L 39.95 28.2125 
Q 37.95 28.2125 37.95 30.2125 
L 37.95 68.9625 
Q 37.95 70.9625 39.95 70.9625 
z
" style="fill:#e5e5e5;opacity:0.8;stroke:#cccccc;stroke-linejoin:miter;stroke-width:0.5;"/>
    </g>
    <g id="line2d_40">
     <path d="M 41.95 35.7125 
L 61.95 35.7125 
" style="fill:none;stroke:#e24a33;stroke-linecap:square;stroke-width:1.5;"/>
    </g>
    <g id="line2d_41"/>
    <g id="text_22">
     <!-- linear -->
     <defs>
      <path d="M 43.75 1.953125 
L 35.9375 1.953125 
L 35.9375 30.078125 
Q 35.9375 34.765625 33.59375 37.5 
Q 31.25 40.234375 27.34375 40.234375 
Q 22.265625 40.234375 17.765625 34.953125 
Q 13.28125 29.6875 13.28125 21.875 
L 13.28125 1.953125 
L 5.46875 1.953125 
L 5.46875 45.703125 
L 13.28125 45.703125 
L 13.28125 37.5 
Q 16.40625 41.796875 20.109375 44.140625 
Q 23.828125 46.484375 29.6875 46.484375 
Q 36.71875 46.484375 40.234375 42.578125 
Q 43.75 38.671875 43.75 32.8125 
z
" id="SimHei-110"/>
      <path d="M 39.0625 37.890625 
Q 31.640625 39.0625 26.5625 35.734375 
Q 21.484375 32.421875 17.96875 24.21875 
L 17.96875 1.953125 
L 10.15625 1.953125 
L 10.15625 45.703125 
L 17.96875 45.703125 
L 17.96875 34.375 
Q 21.484375 40.625 26.75 43.546875 
Q 32.03125 46.484375 39.0625 46.484375 
z
" id="SimHei-114"/>
     </defs>
     <g transform="translate(69.95 39.2125)scale(0.1 -0.1)">
      <use xlink:href="#SimHei-108"/>
      <use x="50" xlink:href="#SimHei-105"/>
      <use x="100" xlink:href="#SimHei-110"/>
      <use x="150" xlink:href="#SimHei-101"/>
      <use x="200" xlink:href="#SimHei-97"/>
      <use x="250" xlink:href="#SimHei-114"/>
     </g>
    </g>
    <g id="line2d_42">
     <path d="M 41.95 48.9625 
L 61.95 48.9625 
" style="fill:none;stroke:#348abd;stroke-linecap:square;stroke-width:1.5;"/>
    </g>
    <g id="line2d_43"/>
    <g id="text_23">
     <!-- quadratic -->
     <defs>
      <path d="M 42.96875 -12.5 
L 35.15625 -12.5 
L 35.15625 7.8125 
Q 32.8125 4.296875 29.6875 2.53125 
Q 26.5625 0.78125 22.265625 0.78125 
Q 14.453125 0.78125 8.984375 6.640625 
Q 3.515625 12.5 3.515625 23.828125 
Q 3.515625 35.15625 8.984375 40.8125 
Q 14.453125 46.484375 22.265625 46.484375 
Q 26.5625 46.484375 29.6875 44.921875 
Q 32.8125 43.359375 35.15625 39.84375 
L 35.15625 45.703125 
L 42.96875 45.703125 
z
M 35.15625 23.828125 
Q 35.15625 31.25 31.828125 35.34375 
Q 28.515625 39.453125 23.828125 39.453125 
Q 17.96875 39.453125 15.03125 35.34375 
Q 12.109375 31.25 12.109375 23.828125 
Q 12.109375 16.40625 15.03125 12.109375 
Q 17.96875 7.8125 23.828125 7.8125 
Q 28.515625 7.8125 31.828125 12.109375 
Q 35.15625 16.40625 35.15625 23.828125 
z
" id="SimHei-113"/>
      <path d="M 43.75 1.953125 
L 35.9375 1.953125 
L 35.9375 10.15625 
Q 32.8125 5.859375 29.09375 3.515625 
Q 25.390625 1.171875 19.53125 1.171875 
Q 12.5 1.171875 8.984375 5.078125 
Q 5.46875 8.984375 5.46875 14.84375 
L 5.46875 45.703125 
L 13.28125 45.703125 
L 13.28125 17.578125 
Q 13.28125 12.890625 15.625 10.15625 
Q 17.96875 7.421875 21.875 7.421875 
Q 26.953125 7.421875 31.4375 12.6875 
Q 35.9375 17.96875 35.9375 25.78125 
L 35.9375 45.703125 
L 43.75 45.703125 
z
" id="SimHei-117"/>
      <path d="M 42.96875 1.953125 
L 35.15625 1.953125 
L 35.15625 7.8125 
Q 32.8125 4.296875 29.6875 2.734375 
Q 26.5625 1.171875 22.265625 1.171875 
Q 14.453125 1.171875 8.984375 6.828125 
Q 3.515625 12.5 3.515625 23.828125 
Q 3.515625 35.15625 8.984375 41.015625 
Q 14.453125 46.875 22.265625 46.875 
Q 26.5625 46.875 29.6875 45.109375 
Q 32.8125 43.359375 35.15625 39.84375 
L 35.15625 68.75 
L 42.96875 68.75 
z
M 35.15625 23.828125 
Q 35.15625 31.25 31.828125 35.546875 
Q 28.515625 39.84375 23.828125 39.84375 
Q 17.96875 39.84375 15.03125 35.546875 
Q 12.109375 31.25 12.109375 23.828125 
Q 12.109375 16.40625 15.03125 12.296875 
Q 17.96875 8.203125 23.828125 8.203125 
Q 28.515625 8.203125 31.828125 12.296875 
Q 35.15625 16.40625 35.15625 23.828125 
z
" id="SimHei-100"/>
      <path d="M 44.53125 19.53125 
Q 44.53125 11.328125 38.859375 6.25 
Q 33.203125 1.171875 24.609375 1.171875 
Q 16.015625 1.171875 9.765625 7.21875 
Q 3.515625 13.28125 3.515625 23.828125 
Q 3.515625 34.375 9.765625 40.421875 
Q 16.015625 46.484375 24.609375 46.484375 
Q 33.203125 46.484375 38.28125 41.984375 
Q 43.359375 37.5 43.359375 31.25 
L 34.765625 31.25 
Q 34.375 35.9375 31.4375 37.6875 
Q 28.515625 39.453125 24.609375 39.453125 
Q 19.921875 39.453125 16.015625 35.734375 
Q 12.109375 32.03125 12.109375 23.828125 
Q 12.109375 15.625 16.015625 11.90625 
Q 19.921875 8.203125 24.609375 8.203125 
Q 29.6875 8.203125 32.8125 10.9375 
Q 35.9375 13.671875 35.9375 19.53125 
z
" id="SimHei-99"/>
     </defs>
     <g transform="translate(69.95 52.4625)scale(0.1 -0.1)">
      <use xlink:href="#SimHei-113"/>
      <use x="50" xlink:href="#SimHei-117"/>
      <use x="100" xlink:href="#SimHei-97"/>
      <use x="150" xlink:href="#SimHei-100"/>
      <use x="200" xlink:href="#SimHei-114"/>
      <use x="250" xlink:href="#SimHei-97"/>
      <use x="300" xlink:href="#SimHei-116"/>
      <use x="350" xlink:href="#SimHei-105"/>
      <use x="400" xlink:href="#SimHei-99"/>
     </g>
    </g>
    <g id="line2d_44">
     <path d="M 41.95 62.2125 
L 61.95 62.2125 
" style="fill:none;stroke:#988ed5;stroke-linecap:square;stroke-width:1.5;"/>
    </g>
    <g id="line2d_45"/>
    <g id="text_24">
     <!-- cubic -->
     <g transform="translate(69.95 65.7125)scale(0.1 -0.1)">
      <use xlink:href="#SimHei-99"/>
      <use x="50" xlink:href="#SimHei-117"/>
      <use x="100" xlink:href="#SimHei-98"/>
      <use x="150" xlink:href="#SimHei-105"/>
      <use x="200" xlink:href="#SimHei-99"/>
     </g>
    </g>
   </g>
  </g>
 </g>
 <defs>
  <clipPath id="p4302045e38">
   <rect height="217.44" width="334.8" x="32.95" y="23.2125"/>
  </clipPath>
 </defs>
</svg>
