<?xml version="1.0" encoding="utf-8" standalone="no"?>
<!DOCTYPE svg PUBLIC "-//W3C//DTD SVG 1.1//EN"
  "http://www.w3.org/Graphics/SVG/1.1/DTD/svg11.dtd">
<!-- Created with matplotlib (https://matplotlib.org/) -->
<svg height="373.385pt" version="1.1" viewBox="0 0 472.8 373.385" width="472.8pt" xmlns="http://www.w3.org/2000/svg" xmlns:xlink="http://www.w3.org/1999/xlink">
 <defs>
  <style type="text/css">
*{stroke-linecap:butt;stroke-linejoin:round;}
  </style>
 </defs>
 <g id="figure_1">
  <g id="patch_1">
   <path d="M 0 373.385 
L 472.8 373.385 
L 472.8 0 
L 0 0 
z
" style="fill:#ffffff;"/>
  </g>
  <g id="axes_1">
   <g id="patch_2">
    <path d="M 19.2 351.06 
L 465.6 351.06 
L 465.6 24.9 
L 19.2 24.9 
z
" style="fill:#e5e5e5;"/>
   </g>
   <g id="matplotlib.axis_1">
    <g id="xtick_1">
     <g id="line2d_1">
      <path clip-path="url(#p0f5e6b0e10)" d="M 67.47837 351.06 
L 67.47837 24.9 
" style="fill:none;stroke:#ffffff;stroke-linecap:square;stroke-width:0.8;"/>
     </g>
     <g id="line2d_2">
      <defs>
       <path d="M 0 0 
L 0 3.5 
" id="ma57de5f5d5" style="stroke:#555555;stroke-width:0.8;"/>
      </defs>
      <g>
       <use style="fill:#555555;stroke:#555555;stroke-width:0.8;" x="67.47837" xlink:href="#ma57de5f5d5" y="351.06"/>
      </g>
     </g>
     <g id="text_1">
      <!-- 0 -->
      <defs>
       <path d="M 3.125 29.296875 
Q 3.90625 50 6.4375 56.046875 
Q 8.984375 62.109375 13.671875 66.015625 
Q 18.359375 69.921875 25.1875 69.921875 
Q 32.03125 69.921875 37.109375 64.25 
Q 42.1875 58.59375 43.75 50 
Q 45.3125 41.40625 44.71875 30.265625 
Q 44.140625 19.140625 40.8125 12.109375 
Q 37.5 5.078125 30.859375 2.34375 
Q 24.21875 -0.390625 17.578125 2.921875 
Q 10.9375 6.25 8.203125 11.71875 
Q 5.46875 17.1875 4.296875 23.234375 
Q 3.125 29.296875 3.90625 50 
z
M 12.890625 52.734375 
Q 10.546875 31.25 12.5 22.84375 
Q 14.453125 14.453125 18.9375 10.9375 
Q 23.4375 7.421875 28.125 9.5625 
Q 32.8125 11.71875 34.953125 18.15625 
Q 37.109375 24.609375 37.109375 32.21875 
Q 37.109375 39.84375 36.515625 46.09375 
Q 35.9375 52.34375 33 57.421875 
Q 30.078125 62.5 25.1875 62.6875 
Q 20.3125 62.890625 16.59375 57.8125 
Q 12.890625 52.734375 10.546875 31.25 
z
" id="SimHei-48"/>
      </defs>
      <g style="fill:#555555;" transform="translate(64.97837 364.935)scale(0.1 -0.1)">
       <use xlink:href="#SimHei-48"/>
      </g>
     </g>
    </g>
    <g id="xtick_2">
     <g id="line2d_3">
      <path clip-path="url(#p0f5e6b0e10)" d="M 137.447022 351.06 
L 137.447022 24.9 
" style="fill:none;stroke:#ffffff;stroke-linecap:square;stroke-width:0.8;"/>
     </g>
     <g id="line2d_4">
      <g>
       <use style="fill:#555555;stroke:#555555;stroke-width:0.8;" x="137.447022" xlink:href="#ma57de5f5d5" y="351.06"/>
      </g>
     </g>
     <g id="text_2">
      <!-- 1 -->
      <defs>
       <path d="M 21.875 56.25 
Q 16.796875 51.171875 8.984375 46.484375 
L 8.984375 53.90625 
Q 18.75 60.546875 25 69.53125 
L 29.6875 69.53125 
L 29.6875 2.34375 
L 21.875 2.34375 
z
" id="SimHei-49"/>
      </defs>
      <g style="fill:#555555;" transform="translate(134.947022 364.935)scale(0.1 -0.1)">
       <use xlink:href="#SimHei-49"/>
      </g>
     </g>
    </g>
    <g id="xtick_3">
     <g id="line2d_5">
      <path clip-path="url(#p0f5e6b0e10)" d="M 207.415674 351.06 
L 207.415674 24.9 
" style="fill:none;stroke:#ffffff;stroke-linecap:square;stroke-width:0.8;"/>
     </g>
     <g id="line2d_6">
      <g>
       <use style="fill:#555555;stroke:#555555;stroke-width:0.8;" x="207.415674" xlink:href="#ma57de5f5d5" y="351.06"/>
      </g>
     </g>
     <g id="text_3">
      <!-- 2 -->
      <defs>
       <path d="M 4.6875 3.90625 
Q 5.078125 9.765625 10.15625 14.453125 
Q 15.234375 19.140625 23.046875 29.09375 
Q 30.859375 39.0625 33.203125 44.53125 
Q 35.546875 50 34.953125 53.90625 
Q 34.375 57.8125 31.25 60.34375 
Q 28.125 62.890625 24.015625 62.5 
Q 19.921875 62.109375 16.203125 59.375 
Q 12.5 56.640625 10.546875 51.171875 
L 3.125 52.34375 
Q 6.25 61.328125 11.125 65.421875 
Q 16.015625 69.53125 22.65625 69.921875 
Q 26.5625 70.3125 29.6875 69.71875 
Q 32.8125 69.140625 36.125 66.984375 
Q 39.453125 64.84375 41.59375 60.546875 
Q 43.75 56.25 43.15625 50.1875 
Q 42.578125 44.140625 37.109375 35.734375 
Q 31.640625 27.34375 16.015625 9.375 
L 44.140625 9.375 
L 44.140625 2.34375 
L 4.6875 2.34375 
z
" id="SimHei-50"/>
      </defs>
      <g style="fill:#555555;" transform="translate(204.915674 364.935)scale(0.1 -0.1)">
       <use xlink:href="#SimHei-50"/>
      </g>
     </g>
    </g>
    <g id="xtick_4">
     <g id="line2d_7">
      <path clip-path="url(#p0f5e6b0e10)" d="M 277.384326 351.06 
L 277.384326 24.9 
" style="fill:none;stroke:#ffffff;stroke-linecap:square;stroke-width:0.8;"/>
     </g>
     <g id="line2d_8">
      <g>
       <use style="fill:#555555;stroke:#555555;stroke-width:0.8;" x="277.384326" xlink:href="#ma57de5f5d5" y="351.06"/>
      </g>
     </g>
     <g id="text_4">
      <!-- 3 -->
      <defs>
       <path d="M 3.90625 19.140625 
L 10.9375 20.3125 
Q 12.5 15.234375 16.015625 11.90625 
Q 19.53125 8.59375 24.796875 8.78125 
Q 30.078125 8.984375 33.203125 13.078125 
Q 36.328125 17.1875 35.9375 22.453125 
Q 35.546875 27.734375 31.828125 30.65625 
Q 28.125 33.59375 19.921875 34.765625 
L 19.921875 39.84375 
Q 28.125 40.625 31.828125 44.140625 
Q 35.546875 47.65625 35.15625 53.3125 
Q 34.765625 58.984375 30.078125 61.515625 
Q 25.390625 64.0625 20.109375 62.109375 
Q 14.84375 60.15625 11.71875 51.171875 
L 4.6875 52.34375 
Q 7.03125 59.375 11.125 64.0625 
Q 15.234375 68.75 22.265625 69.53125 
Q 29.296875 70.3125 34.5625 67.765625 
Q 39.84375 65.234375 41.984375 59.953125 
Q 44.140625 54.6875 42.578125 48.4375 
Q 41.015625 42.1875 33.59375 37.5 
Q 39.0625 35.15625 41.984375 30.46875 
Q 44.921875 25.78125 43.9375 18.15625 
Q 42.96875 10.546875 37.109375 5.859375 
Q 31.25 1.171875 23.828125 1.359375 
Q 16.40625 1.5625 10.9375 6.046875 
Q 5.46875 10.546875 3.90625 19.140625 
z
" id="SimHei-51"/>
      </defs>
      <g style="fill:#555555;" transform="translate(274.884326 364.935)scale(0.1 -0.1)">
       <use xlink:href="#SimHei-51"/>
      </g>
     </g>
    </g>
    <g id="xtick_5">
     <g id="line2d_9">
      <path clip-path="url(#p0f5e6b0e10)" d="M 347.352978 351.06 
L 347.352978 24.9 
" style="fill:none;stroke:#ffffff;stroke-linecap:square;stroke-width:0.8;"/>
     </g>
     <g id="line2d_10">
      <g>
       <use style="fill:#555555;stroke:#555555;stroke-width:0.8;" x="347.352978" xlink:href="#ma57de5f5d5" y="351.06"/>
      </g>
     </g>
     <g id="text_5">
      <!-- 4 -->
      <defs>
       <path d="M 31.25 17.1875 
L 1.171875 17.1875 
L 1.171875 23.828125 
L 32.8125 69.53125 
L 38.671875 69.53125 
L 38.671875 23.828125 
L 48.046875 23.828125 
L 48.046875 17.1875 
L 38.671875 17.1875 
L 38.671875 2.34375 
L 31.25 2.34375 
z
M 31.25 23.828125 
L 31.25 54.6875 
L 9.375 23.828125 
z
" id="SimHei-52"/>
      </defs>
      <g style="fill:#555555;" transform="translate(344.852978 364.935)scale(0.1 -0.1)">
       <use xlink:href="#SimHei-52"/>
      </g>
     </g>
    </g>
    <g id="xtick_6">
     <g id="line2d_11">
      <path clip-path="url(#p0f5e6b0e10)" d="M 417.32163 351.06 
L 417.32163 24.9 
" style="fill:none;stroke:#ffffff;stroke-linecap:square;stroke-width:0.8;"/>
     </g>
     <g id="line2d_12">
      <g>
       <use style="fill:#555555;stroke:#555555;stroke-width:0.8;" x="417.32163" xlink:href="#ma57de5f5d5" y="351.06"/>
      </g>
     </g>
     <g id="text_6">
      <!-- 5 -->
      <defs>
       <path d="M 8.59375 20.703125 
Q 11.328125 10.15625 17.96875 8.984375 
Q 24.609375 7.8125 28.703125 10.34375 
Q 32.8125 12.890625 34.5625 16.984375 
Q 36.328125 21.09375 36.125 26.171875 
Q 35.9375 31.25 33.390625 34.765625 
Q 30.859375 38.28125 26.953125 39.453125 
Q 23.046875 40.625 18.15625 39.453125 
Q 13.28125 38.28125 10.15625 33.984375 
L 3.515625 34.765625 
Q 4.296875 37.109375 10.9375 68.359375 
L 41.796875 68.359375 
L 41.796875 61.328125 
L 16.796875 61.328125 
Q 14.84375 50.78125 12.890625 44.53125 
Q 18.75 47.265625 23.828125 47.0625 
Q 28.90625 46.875 33.59375 44.71875 
Q 38.28125 42.578125 40.421875 38.859375 
Q 42.578125 35.15625 43.546875 31.4375 
Q 44.53125 27.734375 44.328125 23.4375 
Q 44.140625 19.140625 42.578125 14.640625 
Q 41.015625 10.15625 37.890625 7.21875 
Q 34.765625 4.296875 30.265625 2.53125 
Q 25.78125 0.78125 19.921875 1.171875 
Q 14.0625 1.5625 8.78125 5.46875 
Q 3.515625 9.375 1.5625 18.75 
z
" id="SimHei-53"/>
      </defs>
      <g style="fill:#555555;" transform="translate(414.82163 364.935)scale(0.1 -0.1)">
       <use xlink:href="#SimHei-53"/>
      </g>
     </g>
    </g>
   </g>
   <g id="matplotlib.axis_2">
    <g id="ytick_1">
     <g id="line2d_13">
      <path clip-path="url(#p0f5e6b0e10)" d="M 19.2 351.06 
L 465.6 351.06 
" style="fill:none;stroke:#ffffff;stroke-linecap:square;stroke-width:0.8;"/>
     </g>
     <g id="line2d_14">
      <defs>
       <path d="M 0 0 
L -3.5 0 
" id="m8b11ee7048" style="stroke:#555555;stroke-width:0.8;"/>
      </defs>
      <g>
       <use style="fill:#555555;stroke:#555555;stroke-width:0.8;" x="19.2" xlink:href="#m8b11ee7048" y="351.06"/>
      </g>
     </g>
     <g id="text_7">
      <!-- 0 -->
      <g style="fill:#555555;" transform="translate(7.2 354.4975)scale(0.1 -0.1)">
       <use xlink:href="#SimHei-48"/>
      </g>
     </g>
    </g>
    <g id="ytick_2">
     <g id="line2d_15">
      <path clip-path="url(#p0f5e6b0e10)" d="M 19.2 288.934286 
L 465.6 288.934286 
" style="fill:none;stroke:#ffffff;stroke-linecap:square;stroke-width:0.8;"/>
     </g>
     <g id="line2d_16">
      <g>
       <use style="fill:#555555;stroke:#555555;stroke-width:0.8;" x="19.2" xlink:href="#m8b11ee7048" y="288.934286"/>
      </g>
     </g>
     <g id="text_8">
      <!-- 1 -->
      <g style="fill:#555555;" transform="translate(7.2 292.371786)scale(0.1 -0.1)">
       <use xlink:href="#SimHei-49"/>
      </g>
     </g>
    </g>
    <g id="ytick_3">
     <g id="line2d_17">
      <path clip-path="url(#p0f5e6b0e10)" d="M 19.2 226.808571 
L 465.6 226.808571 
" style="fill:none;stroke:#ffffff;stroke-linecap:square;stroke-width:0.8;"/>
     </g>
     <g id="line2d_18">
      <g>
       <use style="fill:#555555;stroke:#555555;stroke-width:0.8;" x="19.2" xlink:href="#m8b11ee7048" y="226.808571"/>
      </g>
     </g>
     <g id="text_9">
      <!-- 2 -->
      <g style="fill:#555555;" transform="translate(7.2 230.246071)scale(0.1 -0.1)">
       <use xlink:href="#SimHei-50"/>
      </g>
     </g>
    </g>
    <g id="ytick_4">
     <g id="line2d_19">
      <path clip-path="url(#p0f5e6b0e10)" d="M 19.2 164.682857 
L 465.6 164.682857 
" style="fill:none;stroke:#ffffff;stroke-linecap:square;stroke-width:0.8;"/>
     </g>
     <g id="line2d_20">
      <g>
       <use style="fill:#555555;stroke:#555555;stroke-width:0.8;" x="19.2" xlink:href="#m8b11ee7048" y="164.682857"/>
      </g>
     </g>
     <g id="text_10">
      <!-- 3 -->
      <g style="fill:#555555;" transform="translate(7.2 168.120357)scale(0.1 -0.1)">
       <use xlink:href="#SimHei-51"/>
      </g>
     </g>
    </g>
    <g id="ytick_5">
     <g id="line2d_21">
      <path clip-path="url(#p0f5e6b0e10)" d="M 19.2 102.557143 
L 465.6 102.557143 
" style="fill:none;stroke:#ffffff;stroke-linecap:square;stroke-width:0.8;"/>
     </g>
     <g id="line2d_22">
      <g>
       <use style="fill:#555555;stroke:#555555;stroke-width:0.8;" x="19.2" xlink:href="#m8b11ee7048" y="102.557143"/>
      </g>
     </g>
     <g id="text_11">
      <!-- 4 -->
      <g style="fill:#555555;" transform="translate(7.2 105.994643)scale(0.1 -0.1)">
       <use xlink:href="#SimHei-52"/>
      </g>
     </g>
    </g>
    <g id="ytick_6">
     <g id="line2d_23">
      <path clip-path="url(#p0f5e6b0e10)" d="M 19.2 40.431429 
L 465.6 40.431429 
" style="fill:none;stroke:#ffffff;stroke-linecap:square;stroke-width:0.8;"/>
     </g>
     <g id="line2d_24">
      <g>
       <use style="fill:#555555;stroke:#555555;stroke-width:0.8;" x="19.2" xlink:href="#m8b11ee7048" y="40.431429"/>
      </g>
     </g>
     <g id="text_12">
      <!-- 5 -->
      <g style="fill:#555555;" transform="translate(7.2 43.868929)scale(0.1 -0.1)">
       <use xlink:href="#SimHei-53"/>
      </g>
     </g>
    </g>
   </g>
   <g id="patch_3">
    <path clip-path="url(#p0f5e6b0e10)" d="M 39.490909 351.06 
L 95.465831 351.06 
L 95.465831 351.06 
L 39.490909 351.06 
z
" style="fill:#e24a33;"/>
   </g>
   <g id="patch_4">
    <path clip-path="url(#p0f5e6b0e10)" d="M 109.459561 351.06 
L 165.434483 351.06 
L 165.434483 288.934286 
L 109.459561 288.934286 
z
" style="fill:#e24a33;"/>
   </g>
   <g id="patch_5">
    <path clip-path="url(#p0f5e6b0e10)" d="M 179.428213 351.06 
L 235.403135 351.06 
L 235.403135 226.808571 
L 179.428213 226.808571 
z
" style="fill:#e24a33;"/>
   </g>
   <g id="patch_6">
    <path clip-path="url(#p0f5e6b0e10)" d="M 249.396865 351.06 
L 305.371787 351.06 
L 305.371787 164.682857 
L 249.396865 164.682857 
z
" style="fill:#e24a33;"/>
   </g>
   <g id="patch_7">
    <path clip-path="url(#p0f5e6b0e10)" d="M 319.365517 351.06 
L 375.340439 351.06 
L 375.340439 102.557143 
L 319.365517 102.557143 
z
" style="fill:#e24a33;"/>
   </g>
   <g id="patch_8">
    <path clip-path="url(#p0f5e6b0e10)" d="M 389.334169 351.06 
L 445.309091 351.06 
L 445.309091 40.431429 
L 389.334169 40.431429 
z
" style="fill:#e24a33;"/>
   </g>
   <g id="line2d_25">
    <path clip-path="url(#p0f5e6b0e10)" d="M 67.47837 351.06 
L 137.447022 288.934286 
L 207.415674 226.808571 
L 277.384326 164.682857 
L 347.352978 102.557143 
L 417.32163 40.431429 
" style="fill:none;stroke:#e24a33;stroke-linecap:square;stroke-width:1.5;"/>
   </g>
   <g id="patch_9">
    <path d="M 19.2 351.06 
L 19.2 24.9 
" style="fill:none;stroke:#ffffff;stroke-linecap:square;stroke-linejoin:miter;"/>
   </g>
   <g id="patch_10">
    <path d="M 465.6 351.06 
L 465.6 24.9 
" style="fill:none;stroke:#ffffff;stroke-linecap:square;stroke-linejoin:miter;"/>
   </g>
   <g id="patch_11">
    <path d="M 19.2 351.06 
L 465.6 351.06 
" style="fill:none;stroke:#ffffff;stroke-linecap:square;stroke-linejoin:miter;"/>
   </g>
   <g id="patch_12">
    <path d="M 19.2 24.9 
L 465.6 24.9 
" style="fill:none;stroke:#ffffff;stroke-linecap:square;stroke-linejoin:miter;"/>
   </g>
   <g id="text_13">
    <!-- 线性增长 -->
    <defs>
     <path d="M 53.90625 67.1875 
Q 53.90625 73.046875 52.734375 80.078125 
Q 57.8125 79.6875 63.28125 78.90625 
Q 62.109375 76.5625 61.71875 71.28125 
Q 61.328125 66.015625 61.71875 56.25 
L 75 58.59375 
Q 81.640625 60.15625 88.28125 62.109375 
L 89.84375 54.6875 
Q 83.203125 53.90625 76.171875 52.734375 
L 62.109375 50 
Q 62.109375 43.75 62.890625 39.0625 
L 78.125 41.796875 
Q 85.9375 43.359375 92.96875 45.703125 
L 94.140625 38.28125 
Q 87.109375 37.109375 79.296875 35.546875 
L 64.0625 32.8125 
Q 64.84375 25 67.96875 18.359375 
Q 71.484375 21.09375 74.796875 24.609375 
Q 78.125 28.125 80.859375 32.421875 
Q 86.71875 27.734375 89.84375 26.171875 
Q 84.765625 23.828125 81.828125 20.890625 
Q 78.90625 17.96875 72.265625 11.71875 
Q 76.953125 3.90625 80.65625 1.75 
Q 84.375 -0.390625 85.9375 1.5625 
Q 87.5 3.515625 88.671875 9.765625 
Q 92.1875 7.03125 96.875 5.46875 
Q 90.234375 -11.71875 82.421875 -8.390625 
Q 74.609375 -5.078125 66.015625 7.03125 
Q 60.546875 2.734375 55.265625 -0.96875 
Q 50 -4.6875 42.1875 -8.59375 
Q 40.234375 -4.6875 36.328125 -1.5625 
Q 44.140625 1.171875 49.609375 4.296875 
Q 55.078125 7.421875 62.109375 13.28125 
Q 58.59375 21.09375 57.03125 31.640625 
Q 45.3125 29.6875 40.625 28.125 
L 39.453125 35.546875 
Q 44.140625 35.546875 55.46875 37.890625 
Q 54.6875 44.140625 54.6875 48.4375 
Q 44.140625 46.09375 40.234375 44.921875 
L 38.671875 52.34375 
Q 42.578125 52.34375 53.90625 54.6875 
z
M 30.46875 76.171875 
Q 26.5625 72.65625 22.84375 66.203125 
Q 19.140625 59.765625 12.890625 50.390625 
Q 22.265625 50.78125 25.78125 50.78125 
Q 29.296875 56.640625 32.03125 63.671875 
Q 35.9375 60.9375 40.625 59.375 
Q 36.71875 55.46875 32.609375 48.828125 
Q 28.515625 42.1875 18.359375 26.171875 
Q 28.90625 26.953125 37.109375 27.734375 
Q 35.9375 23.828125 35.9375 21.09375 
Q 33.203125 21.09375 23.828125 20.109375 
Q 14.453125 19.140625 8.59375 17.578125 
Q 8.203125 21.484375 6.25 25.78125 
Q 10.9375 26.953125 14.84375 32.03125 
Q 18.75 37.109375 23.046875 44.921875 
Q 10.15625 44.140625 6.640625 41.796875 
Q 5.46875 46.09375 3.125 50.390625 
Q 8.203125 53.90625 12.890625 61.90625 
Q 17.578125 69.921875 21.484375 80.46875 
Q 25.390625 77.734375 30.46875 76.171875 
z
M 40.234375 13.671875 
Q 39.84375 9.375 40.234375 7.03125 
Q 30.46875 5.078125 22.65625 3.125 
Q 14.84375 1.171875 8.203125 -1.171875 
Q 7.03125 3.125 3.90625 7.421875 
Q 14.84375 8.59375 20.703125 9.5625 
Q 26.5625 10.546875 40.234375 13.671875 
z
M 75.78125 62.890625 
Q 73.046875 67.1875 68.359375 73.046875 
L 74.609375 76.171875 
Q 76.171875 74.21875 82.421875 66.796875 
Q 78.515625 65.234375 75.78125 62.890625 
z
" id="SimHei-32447"/>
     <path d="M 53.90625 70.703125 
Q 51.953125 63.671875 51.171875 58.59375 
L 63.28125 58.59375 
L 63.28125 66.796875 
Q 63.28125 73.4375 62.890625 79.6875 
L 71.09375 79.6875 
Q 70.703125 73.4375 70.703125 66.796875 
L 70.703125 58.59375 
L 78.515625 58.59375 
Q 83.59375 58.59375 90.625 58.984375 
L 90.625 51.5625 
Q 83.59375 51.953125 78.515625 51.953125 
L 70.703125 51.953125 
L 70.703125 31.25 
L 77.734375 31.25 
Q 83.59375 31.25 89.453125 31.640625 
L 89.453125 24.21875 
Q 83.59375 24.609375 77.734375 24.609375 
L 70.703125 24.609375 
L 70.703125 0.390625 
L 81.25 0.390625 
Q 87.890625 0.390625 94.140625 0.78125 
L 94.140625 -6.25 
Q 87.890625 -5.859375 81.25 -5.859375 
L 51.171875 -5.859375 
Q 44.140625 -5.859375 37.5 -6.25 
L 37.5 0.78125 
Q 44.140625 0.390625 50.78125 0.390625 
L 63.28125 0.390625 
L 63.28125 24.609375 
L 56.640625 24.609375 
Q 51.5625 24.609375 44.921875 24.21875 
L 44.921875 31.640625 
Q 50 31.25 56.640625 31.25 
L 63.28125 31.25 
L 63.28125 51.953125 
L 49.609375 51.953125 
Q 48.4375 46.09375 43.359375 34.765625 
Q 39.0625 37.109375 36.328125 37.5 
Q 41.796875 48.828125 43.359375 57.03125 
Q 44.921875 65.234375 46.09375 72.65625 
Q 50 71.484375 53.90625 70.703125 
z
M 26.5625 80.46875 
Q 26.171875 72.65625 26.171875 65.234375 
L 26.171875 6.640625 
Q 26.171875 -1.5625 26.5625 -9.765625 
L 18.359375 -9.765625 
Q 18.75 -1.5625 18.75 6.640625 
L 18.75 65.234375 
Q 18.75 73.4375 18.359375 80.46875 
L 26.5625 80.46875 
z
M 15.234375 58.203125 
Q 12.890625 41.796875 10.9375 33.59375 
Q 7.03125 34.375 3.90625 35.15625 
Q 6.640625 45.3125 8.203125 59.375 
Q 11.328125 58.984375 15.234375 58.203125 
z
M 33.203125 62.890625 
Q 36.328125 56.640625 39.453125 46.875 
Q 35.9375 45.703125 33.203125 44.140625 
Q 30.46875 52.734375 27.34375 60.15625 
Q 30.46875 61.71875 33.203125 62.890625 
z
" id="SimHei-24615"/>
     <path d="M 85.546875 78.125 
Q 83.203125 75.390625 81.4375 72.0625 
Q 79.6875 68.75 78.515625 66.015625 
L 93.359375 66.015625 
Q 92.96875 62.109375 92.96875 55.078125 
L 92.96875 44.53125 
Q 92.96875 37.5 93.359375 33.203125 
L 39.0625 33.203125 
Q 39.453125 39.84375 39.453125 45.3125 
L 39.453125 56.25 
Q 39.453125 62.5 39.0625 66.015625 
L 71.484375 66.015625 
Q 75 75.78125 76.171875 82.03125 
L 85.546875 78.125 
z
M 89.84375 27.34375 
Q 89.453125 21.875 89.453125 17.1875 
L 89.453125 1.953125 
Q 89.453125 -4.6875 89.84375 -9.765625 
L 82.03125 -9.765625 
L 82.03125 -4.6875 
L 50.78125 -4.6875 
L 50.78125 -9.765625 
L 43.359375 -9.765625 
Q 43.75 -1.171875 43.75 1.171875 
L 43.75 16.796875 
Q 43.75 22.265625 43.359375 27.34375 
L 89.84375 27.34375 
z
M 39.0625 13.671875 
Q 31.640625 11.328125 21.484375 8.203125 
Q 11.328125 5.078125 7.03125 2.734375 
Q 5.078125 7.421875 3.125 10.546875 
Q 14.453125 13.28125 17.96875 14.453125 
L 17.96875 46.484375 
L 15.625 46.484375 
Q 10.15625 46.484375 4.296875 46.09375 
L 4.296875 53.125 
Q 10.15625 52.734375 15.625 52.734375 
L 17.96875 52.734375 
L 17.96875 66.40625 
Q 17.96875 72.265625 17.578125 77.734375 
L 25.78125 77.734375 
Q 25.390625 71.484375 25.390625 66.40625 
L 25.390625 52.734375 
L 28.125 52.734375 
Q 32.421875 52.734375 36.328125 53.125 
L 36.328125 46.09375 
Q 31.25 46.484375 28.125 46.484375 
L 25.390625 46.484375 
L 25.390625 16.40625 
Q 32.8125 18.359375 38.28125 19.921875 
z
M 85.546875 38.28125 
L 85.546875 60.546875 
L 69.140625 60.546875 
L 69.140625 38.28125 
z
M 62.109375 38.28125 
L 62.109375 60.546875 
L 46.484375 60.546875 
L 46.484375 38.28125 
z
M 82.03125 13.671875 
L 82.03125 21.09375 
L 50.78125 21.09375 
L 50.78125 13.671875 
z
M 82.03125 1.171875 
L 82.03125 7.8125 
L 50.78125 7.8125 
L 50.78125 1.171875 
z
M 59.765625 70.3125 
Q 56.25 68.75 53.515625 66.40625 
Q 51.5625 70.3125 45.703125 77.734375 
Q 48.4375 78.90625 51.5625 82.03125 
Q 55.078125 77.34375 59.765625 70.3125 
z
M 83.59375 54.6875 
Q 81.640625 50.390625 78.125 41.796875 
Q 74.609375 43.75 71.09375 44.921875 
Q 74.21875 50.78125 76.171875 57.421875 
Q 78.90625 55.859375 83.59375 54.6875 
z
M 47.65625 53.515625 
Q 50 55.078125 53.90625 56.640625 
Q 55.859375 53.125 59.375 44.921875 
Q 55.859375 43.359375 52.734375 42.1875 
Q 50.78125 48.4375 47.65625 53.515625 
z
" id="SimHei-22686"/>
     <path d="M 27.34375 43.75 
L 27.34375 69.53125 
Q 27.34375 73.046875 26.953125 79.6875 
L 35.546875 79.6875 
Q 35.15625 72.265625 35.15625 69.921875 
L 35.15625 43.75 
L 82.421875 43.75 
Q 87.5 43.75 93.359375 44.140625 
L 93.359375 36.328125 
Q 85.9375 36.71875 79.6875 36.71875 
L 57.03125 36.71875 
Q 59.765625 28.90625 65.421875 21.484375 
Q 71.09375 14.0625 78.90625 9.171875 
Q 86.71875 4.296875 92.96875 2.34375 
Q 87.890625 -0.78125 85.15625 -5.46875 
Q 76.953125 -1.171875 69.921875 4.6875 
Q 62.890625 10.546875 57.421875 18.9375 
Q 51.953125 27.34375 49.21875 36.71875 
L 35.15625 36.71875 
L 35.15625 5.859375 
Q 46.484375 12.890625 50.390625 16.40625 
Q 53.125 12.109375 55.859375 8.59375 
Q 48.4375 5.078125 41.015625 -0.1875 
Q 33.59375 -5.46875 30.078125 -8.984375 
Q 26.953125 -4.6875 24.21875 -1.5625 
Q 27.34375 1.5625 27.34375 6.640625 
L 27.34375 36.71875 
L 18.359375 36.71875 
Q 12.890625 36.71875 5.859375 36.328125 
L 5.859375 44.140625 
Q 12.890625 43.75 17.578125 43.75 
z
M 76.5625 73.4375 
Q 72.265625 69.921875 63.859375 61.515625 
Q 55.46875 53.125 47.265625 45.3125 
Q 43.75 50 41.40625 51.5625 
Q 48.046875 56.25 56.25 64.84375 
Q 64.453125 73.4375 68.75 79.6875 
Q 71.875 76.953125 76.5625 73.4375 
z
" id="SimHei-38271"/>
    </defs>
    <g transform="translate(213.6 18.9)scale(0.144 -0.144)">
     <use xlink:href="#SimHei-32447"/>
     <use x="100" xlink:href="#SimHei-24615"/>
     <use x="200" xlink:href="#SimHei-22686"/>
     <use x="300" xlink:href="#SimHei-38271"/>
    </g>
   </g>
  </g>
 </g>
 <defs>
  <clipPath id="p0f5e6b0e10">
   <rect height="326.16" width="446.4" x="19.2" y="24.9"/>
  </clipPath>
 </defs>
</svg>
