<?xml version="1.0" encoding="utf-8" standalone="no"?>
<!DOCTYPE svg PUBLIC "-//W3C//DTD SVG 1.1//EN"
  "http://www.w3.org/Graphics/SVG/1.1/DTD/svg11.dtd">
<!-- Created with matplotlib (https://matplotlib.org/) -->
<svg height="246.965pt" version="1.1" viewBox="0 0 366.2 246.965" width="366.2pt" xmlns="http://www.w3.org/2000/svg" xmlns:xlink="http://www.w3.org/1999/xlink">
 <defs>
  <style type="text/css">
*{stroke-linecap:butt;stroke-linejoin:round;}
  </style>
 </defs>
 <g id="figure_1">
  <g id="patch_1">
   <path d="M 0 246.965 
L 366.2 246.965 
L 366.2 0 
L 0 0 
z
" style="fill:#ffffff;"/>
  </g>
  <g id="axes_1">
   <g id="patch_2">
    <path d="M 24.2 224.64 
L 359 224.64 
L 359 7.2 
L 24.2 7.2 
z
" style="fill:#e5e5e5;"/>
   </g>
   <g id="matplotlib.axis_1">
    <g id="xtick_1">
     <g id="line2d_1">
      <path clip-path="url(#p56e2647845)" d="M 59.241376 224.64 
L 59.241376 7.2 
" style="fill:none;stroke:#ffffff;stroke-linecap:square;stroke-width:0.8;"/>
     </g>
     <g id="line2d_2">
      <defs>
       <path d="M 0 0 
L 0 3.5 
" id="m83da552c91" style="stroke:#555555;stroke-width:0.8;"/>
      </defs>
      <g>
       <use style="fill:#555555;stroke:#555555;stroke-width:0.8;" x="59.241376" xlink:href="#m83da552c91" y="224.64"/>
      </g>
     </g>
     <g id="text_1">
      <!-- -2 -->
      <defs>
       <path d="M 46.484375 33.203125 
L 1.953125 33.203125 
L 1.953125 39.453125 
L 46.484375 39.453125 
z
" id="SimHei-45"/>
       <path d="M 4.6875 3.90625 
Q 5.078125 9.765625 10.15625 14.453125 
Q 15.234375 19.140625 23.046875 29.09375 
Q 30.859375 39.0625 33.203125 44.53125 
Q 35.546875 50 34.953125 53.90625 
Q 34.375 57.8125 31.25 60.34375 
Q 28.125 62.890625 24.015625 62.5 
Q 19.921875 62.109375 16.203125 59.375 
Q 12.5 56.640625 10.546875 51.171875 
L 3.125 52.34375 
Q 6.25 61.328125 11.125 65.421875 
Q 16.015625 69.53125 22.65625 69.921875 
Q 26.5625 70.3125 29.6875 69.71875 
Q 32.8125 69.140625 36.125 66.984375 
Q 39.453125 64.84375 41.59375 60.546875 
Q 43.75 56.25 43.15625 50.1875 
Q 42.578125 44.140625 37.109375 35.734375 
Q 31.640625 27.34375 16.015625 9.375 
L 44.140625 9.375 
L 44.140625 2.34375 
L 4.6875 2.34375 
z
" id="SimHei-50"/>
      </defs>
      <g style="fill:#555555;" transform="translate(54.241376 238.515)scale(0.1 -0.1)">
       <use xlink:href="#SimHei-45"/>
       <use x="50" xlink:href="#SimHei-50"/>
      </g>
     </g>
    </g>
    <g id="xtick_2">
     <g id="line2d_3">
      <path clip-path="url(#p56e2647845)" d="M 122.855559 224.64 
L 122.855559 7.2 
" style="fill:none;stroke:#ffffff;stroke-linecap:square;stroke-width:0.8;"/>
     </g>
     <g id="line2d_4">
      <g>
       <use style="fill:#555555;stroke:#555555;stroke-width:0.8;" x="122.855559" xlink:href="#m83da552c91" y="224.64"/>
      </g>
     </g>
     <g id="text_2">
      <!-- -1 -->
      <defs>
       <path d="M 21.875 56.25 
Q 16.796875 51.171875 8.984375 46.484375 
L 8.984375 53.90625 
Q 18.75 60.546875 25 69.53125 
L 29.6875 69.53125 
L 29.6875 2.34375 
L 21.875 2.34375 
z
" id="SimHei-49"/>
      </defs>
      <g style="fill:#555555;" transform="translate(117.855559 238.515)scale(0.1 -0.1)">
       <use xlink:href="#SimHei-45"/>
       <use x="50" xlink:href="#SimHei-49"/>
      </g>
     </g>
    </g>
    <g id="xtick_3">
     <g id="line2d_5">
      <path clip-path="url(#p56e2647845)" d="M 186.469741 224.64 
L 186.469741 7.2 
" style="fill:none;stroke:#ffffff;stroke-linecap:square;stroke-width:0.8;"/>
     </g>
     <g id="line2d_6">
      <g>
       <use style="fill:#555555;stroke:#555555;stroke-width:0.8;" x="186.469741" xlink:href="#m83da552c91" y="224.64"/>
      </g>
     </g>
     <g id="text_3">
      <!-- 0 -->
      <defs>
       <path d="M 3.125 29.296875 
Q 3.90625 50 6.4375 56.046875 
Q 8.984375 62.109375 13.671875 66.015625 
Q 18.359375 69.921875 25.1875 69.921875 
Q 32.03125 69.921875 37.109375 64.25 
Q 42.1875 58.59375 43.75 50 
Q 45.3125 41.40625 44.71875 30.265625 
Q 44.140625 19.140625 40.8125 12.109375 
Q 37.5 5.078125 30.859375 2.34375 
Q 24.21875 -0.390625 17.578125 2.921875 
Q 10.9375 6.25 8.203125 11.71875 
Q 5.46875 17.1875 4.296875 23.234375 
Q 3.125 29.296875 3.90625 50 
z
M 12.890625 52.734375 
Q 10.546875 31.25 12.5 22.84375 
Q 14.453125 14.453125 18.9375 10.9375 
Q 23.4375 7.421875 28.125 9.5625 
Q 32.8125 11.71875 34.953125 18.15625 
Q 37.109375 24.609375 37.109375 32.21875 
Q 37.109375 39.84375 36.515625 46.09375 
Q 35.9375 52.34375 33 57.421875 
Q 30.078125 62.5 25.1875 62.6875 
Q 20.3125 62.890625 16.59375 57.8125 
Q 12.890625 52.734375 10.546875 31.25 
z
" id="SimHei-48"/>
      </defs>
      <g style="fill:#555555;" transform="translate(183.969741 238.515)scale(0.1 -0.1)">
       <use xlink:href="#SimHei-48"/>
      </g>
     </g>
    </g>
    <g id="xtick_4">
     <g id="line2d_7">
      <path clip-path="url(#p56e2647845)" d="M 250.083924 224.64 
L 250.083924 7.2 
" style="fill:none;stroke:#ffffff;stroke-linecap:square;stroke-width:0.8;"/>
     </g>
     <g id="line2d_8">
      <g>
       <use style="fill:#555555;stroke:#555555;stroke-width:0.8;" x="250.083924" xlink:href="#m83da552c91" y="224.64"/>
      </g>
     </g>
     <g id="text_4">
      <!-- 1 -->
      <g style="fill:#555555;" transform="translate(247.583924 238.515)scale(0.1 -0.1)">
       <use xlink:href="#SimHei-49"/>
      </g>
     </g>
    </g>
    <g id="xtick_5">
     <g id="line2d_9">
      <path clip-path="url(#p56e2647845)" d="M 313.698107 224.64 
L 313.698107 7.2 
" style="fill:none;stroke:#ffffff;stroke-linecap:square;stroke-width:0.8;"/>
     </g>
     <g id="line2d_10">
      <g>
       <use style="fill:#555555;stroke:#555555;stroke-width:0.8;" x="313.698107" xlink:href="#m83da552c91" y="224.64"/>
      </g>
     </g>
     <g id="text_5">
      <!-- 2 -->
      <g style="fill:#555555;" transform="translate(311.198107 238.515)scale(0.1 -0.1)">
       <use xlink:href="#SimHei-50"/>
      </g>
     </g>
    </g>
   </g>
   <g id="matplotlib.axis_2">
    <g id="ytick_1">
     <g id="line2d_11">
      <path clip-path="url(#p56e2647845)" d="M 24.2 197.214501 
L 359 197.214501 
" style="fill:none;stroke:#ffffff;stroke-linecap:square;stroke-width:0.8;"/>
     </g>
     <g id="line2d_12">
      <defs>
       <path d="M 0 0 
L -3.5 0 
" id="m0b60f45dfd" style="stroke:#555555;stroke-width:0.8;"/>
      </defs>
      <g>
       <use style="fill:#555555;stroke:#555555;stroke-width:0.8;" x="24.2" xlink:href="#m0b60f45dfd" y="197.214501"/>
      </g>
     </g>
     <g id="text_6">
      <!-- -2 -->
      <g style="fill:#555555;" transform="translate(7.2 200.652001)scale(0.1 -0.1)">
       <use xlink:href="#SimHei-45"/>
       <use x="50" xlink:href="#SimHei-50"/>
      </g>
     </g>
    </g>
    <g id="ytick_2">
     <g id="line2d_13">
      <path clip-path="url(#p56e2647845)" d="M 24.2 162.383026 
L 359 162.383026 
" style="fill:none;stroke:#ffffff;stroke-linecap:square;stroke-width:0.8;"/>
     </g>
     <g id="line2d_14">
      <g>
       <use style="fill:#555555;stroke:#555555;stroke-width:0.8;" x="24.2" xlink:href="#m0b60f45dfd" y="162.383026"/>
      </g>
     </g>
     <g id="text_7">
      <!-- -1 -->
      <g style="fill:#555555;" transform="translate(7.2 165.820526)scale(0.1 -0.1)">
       <use xlink:href="#SimHei-45"/>
       <use x="50" xlink:href="#SimHei-49"/>
      </g>
     </g>
    </g>
    <g id="ytick_3">
     <g id="line2d_15">
      <path clip-path="url(#p56e2647845)" d="M 24.2 127.551551 
L 359 127.551551 
" style="fill:none;stroke:#ffffff;stroke-linecap:square;stroke-width:0.8;"/>
     </g>
     <g id="line2d_16">
      <g>
       <use style="fill:#555555;stroke:#555555;stroke-width:0.8;" x="24.2" xlink:href="#m0b60f45dfd" y="127.551551"/>
      </g>
     </g>
     <g id="text_8">
      <!-- 0 -->
      <g style="fill:#555555;" transform="translate(12.2 130.989051)scale(0.1 -0.1)">
       <use xlink:href="#SimHei-48"/>
      </g>
     </g>
    </g>
    <g id="ytick_4">
     <g id="line2d_17">
      <path clip-path="url(#p56e2647845)" d="M 24.2 92.720076 
L 359 92.720076 
" style="fill:none;stroke:#ffffff;stroke-linecap:square;stroke-width:0.8;"/>
     </g>
     <g id="line2d_18">
      <g>
       <use style="fill:#555555;stroke:#555555;stroke-width:0.8;" x="24.2" xlink:href="#m0b60f45dfd" y="92.720076"/>
      </g>
     </g>
     <g id="text_9">
      <!-- 1 -->
      <g style="fill:#555555;" transform="translate(12.2 96.157576)scale(0.1 -0.1)">
       <use xlink:href="#SimHei-49"/>
      </g>
     </g>
    </g>
    <g id="ytick_5">
     <g id="line2d_19">
      <path clip-path="url(#p56e2647845)" d="M 24.2 57.888601 
L 359 57.888601 
" style="fill:none;stroke:#ffffff;stroke-linecap:square;stroke-width:0.8;"/>
     </g>
     <g id="line2d_20">
      <g>
       <use style="fill:#555555;stroke:#555555;stroke-width:0.8;" x="24.2" xlink:href="#m0b60f45dfd" y="57.888601"/>
      </g>
     </g>
     <g id="text_10">
      <!-- 2 -->
      <g style="fill:#555555;" transform="translate(12.2 61.326101)scale(0.1 -0.1)">
       <use xlink:href="#SimHei-50"/>
      </g>
     </g>
    </g>
    <g id="ytick_6">
     <g id="line2d_21">
      <path clip-path="url(#p56e2647845)" d="M 24.2 23.057126 
L 359 23.057126 
" style="fill:none;stroke:#ffffff;stroke-linecap:square;stroke-width:0.8;"/>
     </g>
     <g id="line2d_22">
      <g>
       <use style="fill:#555555;stroke:#555555;stroke-width:0.8;" x="24.2" xlink:href="#m0b60f45dfd" y="23.057126"/>
      </g>
     </g>
     <g id="text_11">
      <!-- 3 -->
      <defs>
       <path d="M 3.90625 19.140625 
L 10.9375 20.3125 
Q 12.5 15.234375 16.015625 11.90625 
Q 19.53125 8.59375 24.796875 8.78125 
Q 30.078125 8.984375 33.203125 13.078125 
Q 36.328125 17.1875 35.9375 22.453125 
Q 35.546875 27.734375 31.828125 30.65625 
Q 28.125 33.59375 19.921875 34.765625 
L 19.921875 39.84375 
Q 28.125 40.625 31.828125 44.140625 
Q 35.546875 47.65625 35.15625 53.3125 
Q 34.765625 58.984375 30.078125 61.515625 
Q 25.390625 64.0625 20.109375 62.109375 
Q 14.84375 60.15625 11.71875 51.171875 
L 4.6875 52.34375 
Q 7.03125 59.375 11.125 64.0625 
Q 15.234375 68.75 22.265625 69.53125 
Q 29.296875 70.3125 34.5625 67.765625 
Q 39.84375 65.234375 41.984375 59.953125 
Q 44.140625 54.6875 42.578125 48.4375 
Q 41.015625 42.1875 33.59375 37.5 
Q 39.0625 35.15625 41.984375 30.46875 
Q 44.921875 25.78125 43.9375 18.15625 
Q 42.96875 10.546875 37.109375 5.859375 
Q 31.25 1.171875 23.828125 1.359375 
Q 16.40625 1.5625 10.9375 6.046875 
Q 5.46875 10.546875 3.90625 19.140625 
z
" id="SimHei-51"/>
      </defs>
      <g style="fill:#555555;" transform="translate(12.2 26.494626)scale(0.1 -0.1)">
       <use xlink:href="#SimHei-51"/>
      </g>
     </g>
    </g>
   </g>
   <g id="line2d_23">
    <path clip-path="url(#p56e2647845)" d="M 163.470707 91.452851 
L 279.752659 123.857261 
L 186.424287 136.913626 
L 107.767907 108.305875 
L 138.821154 137.690158 
L 250.823218 113.876546 
L 262.400135 95.919971 
L 147.84928 100.908205 
L 208.288359 178.101267 
L 202.353752 91.747257 
L 211.488534 110.774381 
L 140.372019 168.992029 
L 103.830507 144.562723 
L 225.291438 93.102874 
L 185.241061 116.271088 
L 277.429315 191.069893 
L 79.803079 178.708178 
L 232.458654 102.635459 
L 39.418182 151.38518 
L 225.017825 85.251028 
L 251.582284 71.546831 
L 181.107327 122.192103 
L 187.150912 110.354047 
L 145.76082 97.175595 
L 142.519543 146.173098 
L 203.251465 121.167989 
L 293.450483 152.525005 
L 155.324946 121.926643 
L 229.277 160.147345 
L 191.603583 109.9792 
L 161.660479 136.022882 
L 159.196127 146.96462 
L 268.642542 214.756364 
L 163.728719 53.099044 
L 278.338081 47.427877 
L 168.840633 137.299045 
L 331.701723 91.617535 
L 141.107799 147.397916 
L 142.310041 143.279274 
L 279.57377 183.668117 
L 158.42524 150.378162 
L 217.575208 121.905189 
L 101.611884 70.376278 
L 133.394095 162.413172 
L 140.354397 138.399277 
L 131.146929 106.799223 
L 138.433774 70.450511 
L 192.521856 99.583721 
L 219.89031 186.086937 
L 179.778952 122.560145 
L 146.493788 101.338179 
L 157.053146 121.732028 
L 145.424684 89.851967 
L 212.535345 153.522005 
L 239.392234 160.46545 
L 278.825572 128.866437 
L 152.621258 169.662226 
L 212.84423 129.58329 
L 101.634009 153.871363 
L 65.747744 174.771547 
L 282.542791 89.081031 
L 151.245589 110.42632 
L 122.66478 196.244555 
L 261.428226 17.083636 
L 254.441653 68.513043 
L 126.720903 175.159291 
L 250.10476 45.882927 
L 210.794358 84.924282 
L 207.161896 118.779735 
L 207.179963 124.728315 
L 78.606769 98.563353 
L 168.379514 114.028927 
L 250.365364 99.068222 
L 193.615765 189.607877 
L 247.67596 130.436393 
L 237.836183 84.621079 
L 327.836786 129.697471 
L 343.781818 91.283526 
L 180.762105 154.145828 
L 221.77998 144.233864 
L 165.239281 81.565261 
L 226.899999 173.072756 
L 146.440778 146.675464 
L 222.929954 91.713842 
L 164.496377 178.026239 
L 264.635098 143.732886 
L 182.18778 56.694525 
L 143.778132 146.400909 
L 228.353432 104.541117 
L 271.842534 118.694145 
L 190.494573 113.443067 
L 273.416402 147.234689 
L 234.837203 103.844653 
L 275.850971 157.182442 
L 233.561875 159.23096 
L 255.664682 117.933151 
L 228.503157 101.703576 
L 162.744174 133.551948 
L 94.28639 108.028994 
L 239.153788 162.020752 
" style="fill:none;stroke:#e24a33;stroke-linecap:square;stroke-width:1.5;"/>
    <defs>
     <path d="M -3 3 
L 3 -3 
M -3 -3 
L 3 3 
" id="m328d1af6e3" style="stroke:#e24a33;"/>
    </defs>
    <g clip-path="url(#p56e2647845)">
     <use style="fill:#e24a33;stroke:#e24a33;" x="163.470707" xlink:href="#m328d1af6e3" y="91.452851"/>
     <use style="fill:#e24a33;stroke:#e24a33;" x="279.752659" xlink:href="#m328d1af6e3" y="123.857261"/>
     <use style="fill:#e24a33;stroke:#e24a33;" x="186.424287" xlink:href="#m328d1af6e3" y="136.913626"/>
     <use style="fill:#e24a33;stroke:#e24a33;" x="107.767907" xlink:href="#m328d1af6e3" y="108.305875"/>
     <use style="fill:#e24a33;stroke:#e24a33;" x="138.821154" xlink:href="#m328d1af6e3" y="137.690158"/>
     <use style="fill:#e24a33;stroke:#e24a33;" x="250.823218" xlink:href="#m328d1af6e3" y="113.876546"/>
     <use style="fill:#e24a33;stroke:#e24a33;" x="262.400135" xlink:href="#m328d1af6e3" y="95.919971"/>
     <use style="fill:#e24a33;stroke:#e24a33;" x="147.84928" xlink:href="#m328d1af6e3" y="100.908205"/>
     <use style="fill:#e24a33;stroke:#e24a33;" x="208.288359" xlink:href="#m328d1af6e3" y="178.101267"/>
     <use style="fill:#e24a33;stroke:#e24a33;" x="202.353752" xlink:href="#m328d1af6e3" y="91.747257"/>
     <use style="fill:#e24a33;stroke:#e24a33;" x="211.488534" xlink:href="#m328d1af6e3" y="110.774381"/>
     <use style="fill:#e24a33;stroke:#e24a33;" x="140.372019" xlink:href="#m328d1af6e3" y="168.992029"/>
     <use style="fill:#e24a33;stroke:#e24a33;" x="103.830507" xlink:href="#m328d1af6e3" y="144.562723"/>
     <use style="fill:#e24a33;stroke:#e24a33;" x="225.291438" xlink:href="#m328d1af6e3" y="93.102874"/>
     <use style="fill:#e24a33;stroke:#e24a33;" x="185.241061" xlink:href="#m328d1af6e3" y="116.271088"/>
     <use style="fill:#e24a33;stroke:#e24a33;" x="277.429315" xlink:href="#m328d1af6e3" y="191.069893"/>
     <use style="fill:#e24a33;stroke:#e24a33;" x="79.803079" xlink:href="#m328d1af6e3" y="178.708178"/>
     <use style="fill:#e24a33;stroke:#e24a33;" x="232.458654" xlink:href="#m328d1af6e3" y="102.635459"/>
     <use style="fill:#e24a33;stroke:#e24a33;" x="39.418182" xlink:href="#m328d1af6e3" y="151.38518"/>
     <use style="fill:#e24a33;stroke:#e24a33;" x="225.017825" xlink:href="#m328d1af6e3" y="85.251028"/>
     <use style="fill:#e24a33;stroke:#e24a33;" x="251.582284" xlink:href="#m328d1af6e3" y="71.546831"/>
     <use style="fill:#e24a33;stroke:#e24a33;" x="181.107327" xlink:href="#m328d1af6e3" y="122.192103"/>
     <use style="fill:#e24a33;stroke:#e24a33;" x="187.150912" xlink:href="#m328d1af6e3" y="110.354047"/>
     <use style="fill:#e24a33;stroke:#e24a33;" x="145.76082" xlink:href="#m328d1af6e3" y="97.175595"/>
     <use style="fill:#e24a33;stroke:#e24a33;" x="142.519543" xlink:href="#m328d1af6e3" y="146.173098"/>
     <use style="fill:#e24a33;stroke:#e24a33;" x="203.251465" xlink:href="#m328d1af6e3" y="121.167989"/>
     <use style="fill:#e24a33;stroke:#e24a33;" x="293.450483" xlink:href="#m328d1af6e3" y="152.525005"/>
     <use style="fill:#e24a33;stroke:#e24a33;" x="155.324946" xlink:href="#m328d1af6e3" y="121.926643"/>
     <use style="fill:#e24a33;stroke:#e24a33;" x="229.277" xlink:href="#m328d1af6e3" y="160.147345"/>
     <use style="fill:#e24a33;stroke:#e24a33;" x="191.603583" xlink:href="#m328d1af6e3" y="109.9792"/>
     <use style="fill:#e24a33;stroke:#e24a33;" x="161.660479" xlink:href="#m328d1af6e3" y="136.022882"/>
     <use style="fill:#e24a33;stroke:#e24a33;" x="159.196127" xlink:href="#m328d1af6e3" y="146.96462"/>
     <use style="fill:#e24a33;stroke:#e24a33;" x="268.642542" xlink:href="#m328d1af6e3" y="214.756364"/>
     <use style="fill:#e24a33;stroke:#e24a33;" x="163.728719" xlink:href="#m328d1af6e3" y="53.099044"/>
     <use style="fill:#e24a33;stroke:#e24a33;" x="278.338081" xlink:href="#m328d1af6e3" y="47.427877"/>
     <use style="fill:#e24a33;stroke:#e24a33;" x="168.840633" xlink:href="#m328d1af6e3" y="137.299045"/>
     <use style="fill:#e24a33;stroke:#e24a33;" x="331.701723" xlink:href="#m328d1af6e3" y="91.617535"/>
     <use style="fill:#e24a33;stroke:#e24a33;" x="141.107799" xlink:href="#m328d1af6e3" y="147.397916"/>
     <use style="fill:#e24a33;stroke:#e24a33;" x="142.310041" xlink:href="#m328d1af6e3" y="143.279274"/>
     <use style="fill:#e24a33;stroke:#e24a33;" x="279.57377" xlink:href="#m328d1af6e3" y="183.668117"/>
     <use style="fill:#e24a33;stroke:#e24a33;" x="158.42524" xlink:href="#m328d1af6e3" y="150.378162"/>
     <use style="fill:#e24a33;stroke:#e24a33;" x="217.575208" xlink:href="#m328d1af6e3" y="121.905189"/>
     <use style="fill:#e24a33;stroke:#e24a33;" x="101.611884" xlink:href="#m328d1af6e3" y="70.376278"/>
     <use style="fill:#e24a33;stroke:#e24a33;" x="133.394095" xlink:href="#m328d1af6e3" y="162.413172"/>
     <use style="fill:#e24a33;stroke:#e24a33;" x="140.354397" xlink:href="#m328d1af6e3" y="138.399277"/>
     <use style="fill:#e24a33;stroke:#e24a33;" x="131.146929" xlink:href="#m328d1af6e3" y="106.799223"/>
     <use style="fill:#e24a33;stroke:#e24a33;" x="138.433774" xlink:href="#m328d1af6e3" y="70.450511"/>
     <use style="fill:#e24a33;stroke:#e24a33;" x="192.521856" xlink:href="#m328d1af6e3" y="99.583721"/>
     <use style="fill:#e24a33;stroke:#e24a33;" x="219.89031" xlink:href="#m328d1af6e3" y="186.086937"/>
     <use style="fill:#e24a33;stroke:#e24a33;" x="179.778952" xlink:href="#m328d1af6e3" y="122.560145"/>
     <use style="fill:#e24a33;stroke:#e24a33;" x="146.493788" xlink:href="#m328d1af6e3" y="101.338179"/>
     <use style="fill:#e24a33;stroke:#e24a33;" x="157.053146" xlink:href="#m328d1af6e3" y="121.732028"/>
     <use style="fill:#e24a33;stroke:#e24a33;" x="145.424684" xlink:href="#m328d1af6e3" y="89.851967"/>
     <use style="fill:#e24a33;stroke:#e24a33;" x="212.535345" xlink:href="#m328d1af6e3" y="153.522005"/>
     <use style="fill:#e24a33;stroke:#e24a33;" x="239.392234" xlink:href="#m328d1af6e3" y="160.46545"/>
     <use style="fill:#e24a33;stroke:#e24a33;" x="278.825572" xlink:href="#m328d1af6e3" y="128.866437"/>
     <use style="fill:#e24a33;stroke:#e24a33;" x="152.621258" xlink:href="#m328d1af6e3" y="169.662226"/>
     <use style="fill:#e24a33;stroke:#e24a33;" x="212.84423" xlink:href="#m328d1af6e3" y="129.58329"/>
     <use style="fill:#e24a33;stroke:#e24a33;" x="101.634009" xlink:href="#m328d1af6e3" y="153.871363"/>
     <use style="fill:#e24a33;stroke:#e24a33;" x="65.747744" xlink:href="#m328d1af6e3" y="174.771547"/>
     <use style="fill:#e24a33;stroke:#e24a33;" x="282.542791" xlink:href="#m328d1af6e3" y="89.081031"/>
     <use style="fill:#e24a33;stroke:#e24a33;" x="151.245589" xlink:href="#m328d1af6e3" y="110.42632"/>
     <use style="fill:#e24a33;stroke:#e24a33;" x="122.66478" xlink:href="#m328d1af6e3" y="196.244555"/>
     <use style="fill:#e24a33;stroke:#e24a33;" x="261.428226" xlink:href="#m328d1af6e3" y="17.083636"/>
     <use style="fill:#e24a33;stroke:#e24a33;" x="254.441653" xlink:href="#m328d1af6e3" y="68.513043"/>
     <use style="fill:#e24a33;stroke:#e24a33;" x="126.720903" xlink:href="#m328d1af6e3" y="175.159291"/>
     <use style="fill:#e24a33;stroke:#e24a33;" x="250.10476" xlink:href="#m328d1af6e3" y="45.882927"/>
     <use style="fill:#e24a33;stroke:#e24a33;" x="210.794358" xlink:href="#m328d1af6e3" y="84.924282"/>
     <use style="fill:#e24a33;stroke:#e24a33;" x="207.161896" xlink:href="#m328d1af6e3" y="118.779735"/>
     <use style="fill:#e24a33;stroke:#e24a33;" x="207.179963" xlink:href="#m328d1af6e3" y="124.728315"/>
     <use style="fill:#e24a33;stroke:#e24a33;" x="78.606769" xlink:href="#m328d1af6e3" y="98.563353"/>
     <use style="fill:#e24a33;stroke:#e24a33;" x="168.379514" xlink:href="#m328d1af6e3" y="114.028927"/>
     <use style="fill:#e24a33;stroke:#e24a33;" x="250.365364" xlink:href="#m328d1af6e3" y="99.068222"/>
     <use style="fill:#e24a33;stroke:#e24a33;" x="193.615765" xlink:href="#m328d1af6e3" y="189.607877"/>
     <use style="fill:#e24a33;stroke:#e24a33;" x="247.67596" xlink:href="#m328d1af6e3" y="130.436393"/>
     <use style="fill:#e24a33;stroke:#e24a33;" x="237.836183" xlink:href="#m328d1af6e3" y="84.621079"/>
     <use style="fill:#e24a33;stroke:#e24a33;" x="327.836786" xlink:href="#m328d1af6e3" y="129.697471"/>
     <use style="fill:#e24a33;stroke:#e24a33;" x="343.781818" xlink:href="#m328d1af6e3" y="91.283526"/>
     <use style="fill:#e24a33;stroke:#e24a33;" x="180.762105" xlink:href="#m328d1af6e3" y="154.145828"/>
     <use style="fill:#e24a33;stroke:#e24a33;" x="221.77998" xlink:href="#m328d1af6e3" y="144.233864"/>
     <use style="fill:#e24a33;stroke:#e24a33;" x="165.239281" xlink:href="#m328d1af6e3" y="81.565261"/>
     <use style="fill:#e24a33;stroke:#e24a33;" x="226.899999" xlink:href="#m328d1af6e3" y="173.072756"/>
     <use style="fill:#e24a33;stroke:#e24a33;" x="146.440778" xlink:href="#m328d1af6e3" y="146.675464"/>
     <use style="fill:#e24a33;stroke:#e24a33;" x="222.929954" xlink:href="#m328d1af6e3" y="91.713842"/>
     <use style="fill:#e24a33;stroke:#e24a33;" x="164.496377" xlink:href="#m328d1af6e3" y="178.026239"/>
     <use style="fill:#e24a33;stroke:#e24a33;" x="264.635098" xlink:href="#m328d1af6e3" y="143.732886"/>
     <use style="fill:#e24a33;stroke:#e24a33;" x="182.18778" xlink:href="#m328d1af6e3" y="56.694525"/>
     <use style="fill:#e24a33;stroke:#e24a33;" x="143.778132" xlink:href="#m328d1af6e3" y="146.400909"/>
     <use style="fill:#e24a33;stroke:#e24a33;" x="228.353432" xlink:href="#m328d1af6e3" y="104.541117"/>
     <use style="fill:#e24a33;stroke:#e24a33;" x="271.842534" xlink:href="#m328d1af6e3" y="118.694145"/>
     <use style="fill:#e24a33;stroke:#e24a33;" x="190.494573" xlink:href="#m328d1af6e3" y="113.443067"/>
     <use style="fill:#e24a33;stroke:#e24a33;" x="273.416402" xlink:href="#m328d1af6e3" y="147.234689"/>
     <use style="fill:#e24a33;stroke:#e24a33;" x="234.837203" xlink:href="#m328d1af6e3" y="103.844653"/>
     <use style="fill:#e24a33;stroke:#e24a33;" x="275.850971" xlink:href="#m328d1af6e3" y="157.182442"/>
     <use style="fill:#e24a33;stroke:#e24a33;" x="233.561875" xlink:href="#m328d1af6e3" y="159.23096"/>
     <use style="fill:#e24a33;stroke:#e24a33;" x="255.664682" xlink:href="#m328d1af6e3" y="117.933151"/>
     <use style="fill:#e24a33;stroke:#e24a33;" x="228.503157" xlink:href="#m328d1af6e3" y="101.703576"/>
     <use style="fill:#e24a33;stroke:#e24a33;" x="162.744174" xlink:href="#m328d1af6e3" y="133.551948"/>
     <use style="fill:#e24a33;stroke:#e24a33;" x="94.28639" xlink:href="#m328d1af6e3" y="108.028994"/>
     <use style="fill:#e24a33;stroke:#e24a33;" x="239.153788" xlink:href="#m328d1af6e3" y="162.020752"/>
    </g>
   </g>
   <g id="patch_3">
    <path d="M 24.2 224.64 
L 24.2 7.2 
" style="fill:none;stroke:#ffffff;stroke-linecap:square;stroke-linejoin:miter;"/>
   </g>
   <g id="patch_4">
    <path d="M 359 224.64 
L 359 7.2 
" style="fill:none;stroke:#ffffff;stroke-linecap:square;stroke-linejoin:miter;"/>
   </g>
   <g id="patch_5">
    <path d="M 24.2 224.64 
L 359 224.64 
" style="fill:none;stroke:#ffffff;stroke-linecap:square;stroke-linejoin:miter;"/>
   </g>
   <g id="patch_6">
    <path d="M 24.2 7.2 
L 359 7.2 
" style="fill:none;stroke:#ffffff;stroke-linecap:square;stroke-linejoin:miter;"/>
   </g>
  </g>
 </g>
 <defs>
  <clipPath id="p56e2647845">
   <rect height="217.44" width="334.8" x="24.2" y="7.2"/>
  </clipPath>
 </defs>
</svg>
